<svg xmlns="http://www.w3.org/2000/svg" viewBox="0 0 289.67 155.36"><defs><style>.cls-1{fill:#5e625f;}.cls-2{fill:#e7e7e6;}.cls-3{fill:#ffc791;}.cls-4{fill:#ea5d5d;}.cls-5{fill:#fff;}.cls-6{fill:#9f5655;}.cls-7{fill:#c8984e;}.cls-8{fill:#157996;}.cls-9{fill:#306573;}.cls-10{fill:#c4c4c4;}.cls-11{fill:#6a7172;}.cls-12{fill:#0089a4;}.cls-13{fill:#7d8687;}.cls-14{fill:#dc3832;}.cls-15{opacity:0.46;}.cls-16{fill:#dc417b;}.cls-17{fill:#e1643a;}</style></defs><g id="Layer_2" data-name="Layer 2"><g id="Layer_1-2" data-name="Layer 1"><path class="cls-1" d="M92.69,60.58a7.37,7.37,0,0,1-3,6.28V57.28h3Z"/><rect class="cls-1" x="71.54" y="57.28" width="4.99" height="17.66"/><ellipse class="cls-2" cx="90.82" cy="77.28" rx="3.34" ry="3.48"/><ellipse class="cls-3" cx="90.82" cy="101.4" rx="3.34" ry="3.48"/><rect class="cls-3" x="87.48" y="77.28" width="6.68" height="12.06" transform="translate(181.64 166.62) rotate(180)"/><rect class="cls-3" x="87.48" y="89.34" width="6.68" height="12.06" transform="translate(181.64 190.75) rotate(180)"/><ellipse class="cls-3" cx="90.82" cy="89.34" rx="3.34" ry="3.48"/><rect class="cls-2" x="87.48" y="77.28" width="6.68" height="7.75" transform="translate(181.64 162.32) rotate(180)"/><rect class="cls-3" x="83.46" y="110.65" width="6.19" height="12.77" transform="translate(173.11 234.06) rotate(180)"/><rect class="cls-1" x="83.46" y="118.66" width="6.19" height="4.76" transform="translate(173.11 242.07) rotate(180)"/><path class="cls-2" d="M87.35,70.8a2.94,2.94,0,0,1,2.88,3H87.35Z"/><rect class="cls-2" x="84.65" y="70.8" width="2.7" height="3" transform="translate(172 144.6) rotate(180)"/><rect class="cls-3" x="72.57" y="110.65" width="6.19" height="12.77" transform="translate(151.32 234.06) rotate(180)"/><rect class="cls-4" x="71.4" y="98.25" width="19.42" height="15.6" transform="translate(162.22 212.09) rotate(180)"/><rect class="cls-2" x="71.4" y="73.8" width="19.42" height="24.45" transform="translate(162.22 172.05) rotate(180)"/><path class="cls-3" d="M91.29,57.28V66c0,4.29-2.24,6.77-5.35,7.77H76.53V57.28Z"/><path class="cls-1" d="M84.81,61.5a.6.6,0,0,1,.59.61v1.71a.59.59,0,1,1-1.18,0V62.11A.6.6,0,0,1,84.81,61.5Z"/><path class="cls-1" d="M89.05,61.5a.6.6,0,0,1,.59.61v1.71a.59.59,0,1,1-1.18,0V62.11A.6.6,0,0,1,89.05,61.5Z"/><rect class="cls-1" x="72.57" y="118.66" width="6.19" height="4.76" transform="translate(151.32 242.07) rotate(180)"/><path class="cls-5" d="M86.93,70a2,2,0,0,0,2-2.06H85A2,2,0,0,0,86.93,70Z"/><path class="cls-2" d="M77.21,70.8a2.94,2.94,0,0,1,2.88,3H77.21Z"/><rect class="cls-2" x="74.98" y="70.8" width="2.23" height="3" transform="translate(152.19 144.6) rotate(180)"/><ellipse class="cls-2" cx="71.4" cy="77.28" rx="3.34" ry="3.48"/><ellipse class="cls-3" cx="71.4" cy="101.4" rx="3.34" ry="3.48"/><rect class="cls-3" x="68.06" y="77.28" width="6.68" height="12.06" transform="translate(142.8 166.62) rotate(180)"/><rect class="cls-3" x="68.06" y="89.34" width="6.68" height="12.06" transform="translate(142.8 190.75) rotate(180)"/><ellipse class="cls-3" cx="71.4" cy="89.34" rx="3.34" ry="3.48"/><rect class="cls-2" x="68.06" y="77.28" width="6.68" height="7.75" transform="translate(142.8 162.32) rotate(180)"/><path class="cls-1" d="M76.53,63.17c3.52,0,5-2.22,5-5.89h-5Z"/><path class="cls-3" d="M74.27,64a2.26,2.26,0,1,0,2.26-2.35A2.3,2.3,0,0,0,74.27,64Z"/><path class="cls-1" d="M78.24,50.29v7h-6.7A6.85,6.85,0,0,1,78.24,50.29Z"/><path class="cls-1" d="M86,50.29v7h6.7A6.85,6.85,0,0,0,86,50.29Z"/><rect class="cls-1" x="78.24" y="50.29" width="7.76" height="6.98"/><rect class="cls-6" x="74.68" y="109.6" width="2.11" height="4.24"/><rect class="cls-6" x="80.06" y="109.6" width="2.11" height="4.24"/><rect class="cls-6" x="85.44" y="109.6" width="2.11" height="4.24"/><path class="cls-1" d="M89.65,123.41H83.46v2.26a2.64,2.64,0,0,0,2.59,2.69h6.1a1.22,1.22,0,0,0,1.2-1.25h0a1.26,1.26,0,0,0-.45-1Z"/><path class="cls-1" d="M78.75,123.41H72.57v2.26a2.64,2.64,0,0,0,2.58,2.69h6.11a1.23,1.23,0,0,0,1.2-1.25h0a1.3,1.3,0,0,0-.45-1Z"/><polygon class="cls-4" points="81.96 90.27 84.31 92.52 86.65 90.27 85.94 73.8 82.67 73.8 81.96 90.27"/><path class="cls-1" d="M91.29,57.28a3.22,3.22,0,0,1-3.15,3.28V57.28Z"/><rect class="cls-1" x="79.31" y="57.28" width="8.83" height="3.29"/><ellipse class="cls-7" cx="155.85" cy="61.9" rx="2.87" ry="2.99"/><path class="cls-7" d="M155.73,57.28v3.91c0,4.87,1.27,8.49,5,9.32V57.28Z"/><ellipse class="cls-2" cx="175.01" cy="77.28" rx="3.34" ry="3.48"/><ellipse class="cls-3" cx="175.01" cy="101.4" rx="3.34" ry="3.48"/><rect class="cls-2" x="171.67" y="77.28" width="6.68" height="12.06" transform="translate(350.01 166.62) rotate(180)"/><rect class="cls-2" x="171.67" y="89.34" width="6.68" height="12.06" transform="translate(350.01 190.75) rotate(180)"/><ellipse class="cls-2" cx="175.01" cy="89.34" rx="3.34" ry="3.48"/><rect class="cls-3" x="167.65" y="110.65" width="6.19" height="12.77" transform="translate(341.49 234.06) rotate(180)"/><rect class="cls-1" x="167.65" y="118.66" width="6.19" height="4.76" transform="translate(341.49 242.07) rotate(180)"/><path class="cls-2" d="M171.54,70.8a2.94,2.94,0,0,1,2.88,3h-2.88Z"/><rect class="cls-2" x="168.84" y="70.8" width="2.7" height="3" transform="translate(340.38 144.6) rotate(180)"/><rect class="cls-3" x="156.76" y="110.65" width="6.19" height="12.77" transform="translate(319.7 234.06) rotate(180)"/><rect class="cls-8" x="155.59" y="98.25" width="19.42" height="15.6" transform="translate(330.59 212.09) rotate(180)"/><rect class="cls-1" x="155.59" y="73.8" width="19.42" height="24.45" transform="translate(330.59 172.05) rotate(180)"/><path class="cls-3" d="M175.48,57.28V66c0,4.29-2.24,6.77-5.36,7.77h-9.4V57.28Z"/><path class="cls-1" d="M169,61.5a.6.6,0,0,1,.59.61v1.71a.6.6,0,0,1-.59.61.6.6,0,0,1-.59-.61V62.11A.6.6,0,0,1,169,61.5Z"/><path class="cls-1" d="M173.24,61.5a.6.6,0,0,1,.59.61v1.71a.6.6,0,0,1-.59.61.6.6,0,0,1-.59-.61V62.11A.6.6,0,0,1,173.24,61.5Z"/><rect class="cls-1" x="156.76" y="118.66" width="6.19" height="4.76" transform="translate(319.7 242.07) rotate(180)"/><path class="cls-5" d="M171.12,70a2,2,0,0,0,2-2.06h-4A2,2,0,0,0,171.12,70Z"/><path class="cls-2" d="M161.4,70.8a2.94,2.94,0,0,1,2.88,3H161.4Z"/><rect class="cls-2" x="159.17" y="70.8" width="2.23" height="3" transform="translate(320.56 144.6) rotate(180)"/><ellipse class="cls-2" cx="155.59" cy="77.28" rx="3.34" ry="3.48"/><ellipse class="cls-3" cx="155.59" cy="101.4" rx="3.34" ry="3.48"/><rect class="cls-2" x="152.25" y="77.28" width="6.68" height="12.06" transform="translate(311.18 166.62) rotate(180)"/><rect class="cls-2" x="152.25" y="89.34" width="6.68" height="12.06" transform="translate(311.18 190.75) rotate(180)"/><ellipse class="cls-2" cx="155.59" cy="89.34" rx="3.34" ry="3.48"/><path class="cls-7" d="M160.72,63.17c3.52,0,5-2.22,5-5.89h-5Z"/><path class="cls-3" d="M158.46,64a2.26,2.26,0,1,0,2.26-2.35A2.3,2.3,0,0,0,158.46,64Z"/><path class="cls-7" d="M162.42,50.29v7h-6.69A6.84,6.84,0,0,1,162.42,50.29Z"/><path class="cls-7" d="M170.19,50.29v7h6.7A6.85,6.85,0,0,0,170.19,50.29Z"/><rect class="cls-7" x="162.42" y="50.29" width="7.76" height="6.98"/><rect class="cls-9" x="158.86" y="109.6" width="2.11" height="4.24"/><rect class="cls-9" x="164.24" y="109.6" width="2.11" height="4.24"/><rect class="cls-9" x="169.63" y="109.6" width="2.11" height="4.24"/><path class="cls-1" d="M173.84,123.41h-6.19v2.26a2.64,2.64,0,0,0,2.59,2.69h6.1a1.23,1.23,0,0,0,1.2-1.25h0a1.26,1.26,0,0,0-.45-1Z"/><path class="cls-1" d="M162.94,123.41h-6.18v2.26a2.63,2.63,0,0,0,2.58,2.69h6.1a1.23,1.23,0,0,0,1.21-1.25h0a1.3,1.3,0,0,0-.45-1Z"/><path class="cls-7" d="M171.25,57.28a3.22,3.22,0,0,1-3.15,3.28V57.28Z"/><path class="cls-7" d="M171.25,57.28a3.22,3.22,0,0,0,3.15,3.28V57.28Z"/><rect class="cls-7" x="163.49" y="57.28" width="4.6" height="3.29"/><polygon class="cls-2" points="168.13 80.76 164.28 73.8 171.99 73.8 168.13 80.76"/><polygon class="cls-8" points="168.13 80.76 169.54 78.22 169.39 73.8 166.87 73.8 166.72 78.22 168.13 80.76"/><rect class="cls-7" x="174.4" y="57.28" width="2.48" height="3.29"/><rect class="cls-1" x="194.55" y="62.36" width="4.48" height="5.13" transform="translate(393.58 129.84) rotate(180)"/><path class="cls-1" d="M199,67.48a4.58,4.58,0,0,1-4.48,4.67V67.48Z"/><path class="cls-1" d="M194.55,62.36A4.58,4.58,0,0,1,199,57.68v4.68Z"/><path class="cls-1" d="M215.85,67.24A3.21,3.21,0,0,0,219,70.51V67.24Z"/><rect class="cls-1" x="212.43" y="60.69" width="9.96" height="3.13" transform="translate(155.15 279.67) rotate(-90)"/><path class="cls-1" d="M197.82,57.28v3.91c0,4.87,1.27,8.49,5,9.32V57.28Z"/><ellipse class="cls-2" cx="217.1" cy="77.28" rx="3.34" ry="3.48"/><ellipse class="cls-3" cx="217.1" cy="101.4" rx="3.34" ry="3.48"/><rect class="cls-3" x="213.76" y="77.28" width="6.68" height="12.06" transform="translate(434.2 166.62) rotate(180)"/><rect class="cls-3" x="213.76" y="89.34" width="6.68" height="12.06" transform="translate(434.2 190.75) rotate(180)"/><ellipse class="cls-3" cx="217.1" cy="89.34" rx="3.34" ry="3.48"/><rect class="cls-2" x="213.76" y="77.28" width="6.68" height="7.75" transform="translate(434.2 162.32) rotate(180)"/><rect class="cls-3" x="209.75" y="110.65" width="6.19" height="12.77" transform="translate(425.68 234.06) rotate(180)"/><rect class="cls-2" x="209.75" y="118.66" width="6.19" height="4.76" transform="translate(425.68 242.07) rotate(180)"/><path class="cls-2" d="M213.63,70.8a2.94,2.94,0,0,1,2.88,3h-2.88Z"/><rect class="cls-2" x="210.93" y="70.8" width="2.7" height="3" transform="translate(424.56 144.6) rotate(180)"/><rect class="cls-3" x="198.85" y="110.65" width="6.19" height="12.77" transform="translate(403.89 234.06) rotate(180)"/><rect class="cls-8" x="197.68" y="98.25" width="19.42" height="15.6" transform="translate(414.78 212.09) rotate(180)"/><rect class="cls-2" x="197.68" y="73.8" width="19.42" height="24.45" transform="translate(414.78 172.05) rotate(180)"/><rect class="cls-1" x="197.68" y="95.37" width="19.42" height="2.87" transform="translate(414.78 193.62) rotate(180)"/><rect class="cls-10" x="209.82" y="95.37" width="4.71" height="2.87" transform="translate(424.35 193.62) rotate(180)"/><path class="cls-3" d="M217.57,57.28V66c0,4.29-2.24,6.77-5.35,7.77h-9.41V57.28Z"/><path class="cls-1" d="M211.09,61.5a.6.6,0,0,1,.59.61v1.71a.6.6,0,0,1-.59.61.6.6,0,0,1-.59-.61V62.11A.6.6,0,0,1,211.09,61.5Z"/><path class="cls-1" d="M215.33,61.5a.6.6,0,0,1,.59.61v1.71a.59.59,0,1,1-1.18,0V62.11A.6.6,0,0,1,215.33,61.5Z"/><rect class="cls-2" x="198.85" y="118.66" width="6.19" height="4.76" transform="translate(403.89 242.07) rotate(180)"/><path class="cls-5" d="M213.21,70a2,2,0,0,0,2-2.06h-3.95A2,2,0,0,0,213.21,70Z"/><path class="cls-2" d="M203.49,70.8a2.94,2.94,0,0,1,2.88,3h-2.88Z"/><rect class="cls-2" x="201.26" y="70.8" width="2.23" height="3" transform="translate(404.75 144.6) rotate(180)"/><ellipse class="cls-2" cx="197.68" cy="77.28" rx="3.34" ry="3.48"/><ellipse class="cls-3" cx="197.68" cy="101.4" rx="3.34" ry="3.48"/><rect class="cls-3" x="194.34" y="77.28" width="6.68" height="12.06" transform="translate(395.36 166.62) rotate(180)"/><rect class="cls-3" x="194.34" y="89.34" width="6.68" height="12.06" transform="translate(395.36 190.75) rotate(180)"/><ellipse class="cls-3" cx="197.68" cy="89.34" rx="3.34" ry="3.48"/><rect class="cls-2" x="194.34" y="77.28" width="6.68" height="7.75" transform="translate(395.36 162.32) rotate(180)"/><path class="cls-1" d="M204.52,50.29v7h-6.7A6.85,6.85,0,0,1,204.52,50.29Z"/><path class="cls-1" d="M212.28,50.29v7H219A6.85,6.85,0,0,0,212.28,50.29Z"/><rect class="cls-1" x="204.52" y="50.29" width="7.76" height="6.98"/><rect class="cls-9" x="200.96" y="109.6" width="2.11" height="4.24"/><rect class="cls-9" x="206.34" y="109.6" width="2.11" height="4.24"/><rect class="cls-9" x="211.72" y="109.6" width="2.11" height="4.24"/><path class="cls-1" d="M215.93,123.41h-6.18v2.26a2.63,2.63,0,0,0,2.58,2.69h6.1a1.23,1.23,0,0,0,1.21-1.25h0a1.3,1.3,0,0,0-.45-1Z"/><path class="cls-1" d="M205,123.41h-6.19v2.26a2.64,2.64,0,0,0,2.58,2.69h6.11a1.23,1.23,0,0,0,1.2-1.25h0a1.3,1.3,0,0,0-.45-1Z"/><path class="cls-1" d="M213.38,57.28a3.22,3.22,0,0,1-3.15,3.28V57.28Z"/><path class="cls-1" d="M213.38,57.28a3.23,3.23,0,0,0,3.16,3.28V57.28Z"/><rect class="cls-1" x="202.8" y="57.28" width="7.44" height="3.29"/><polygon class="cls-3" points="212.18 73.8 212.18 77.08 206.33 73.8 212.18 73.8"/><path class="cls-10" d="M211.16,88.83a1,1,0,1,0,1-1A1,1,0,0,0,211.16,88.83Z"/><path class="cls-10" d="M211.16,82.84a1,1,0,1,1,1,1A1,1,0,0,1,211.16,82.84Z"/><path class="cls-1" d="M205.07,67.24a3.21,3.21,0,0,0,3.13,3.27V67.24Z"/><rect class="cls-1" x="203.29" y="62.34" width="6.68" height="3.13" transform="translate(142.73 270.54) rotate(-90)"/><rect class="cls-1" x="202.8" y="60.56" width="2.27" height="3.34"/><path class="cls-3" d="M200.55,64a2.26,2.26,0,1,0,2.26-2.35A2.3,2.3,0,0,0,200.55,64Z"/><rect class="cls-1" x="216.54" y="57.28" width="2.44" height="3.29"/><path class="cls-7" d="M261.07,60.58a7.37,7.37,0,0,1-3,6.28V57.28h3Z"/><rect class="cls-7" x="239.91" y="57.28" width="4.99" height="22.06" transform="translate(484.82 136.62) rotate(180)"/><path class="cls-2" d="M255.77,70.8a2.94,2.94,0,0,1,2.88,3h-2.88Z"/><rect class="cls-2" x="253.07" y="70.8" width="2.7" height="3" transform="translate(508.84 144.6) rotate(180)"/><ellipse class="cls-2" cx="259.19" cy="77.28" rx="3.34" ry="3.48"/><ellipse class="cls-3" cx="259.19" cy="101.4" rx="3.34" ry="3.48"/><rect class="cls-3" x="255.85" y="77.28" width="6.68" height="12.06" transform="translate(518.39 166.62) rotate(180)"/><rect class="cls-3" x="255.85" y="89.34" width="6.68" height="12.06" transform="translate(518.39 190.75) rotate(180)"/><ellipse class="cls-3" cx="259.19" cy="89.34" rx="3.34" ry="3.48"/><rect class="cls-2" x="255.85" y="77.28" width="6.68" height="7.75" transform="translate(518.39 162.32) rotate(180)"/><rect class="cls-3" x="251.84" y="110.65" width="6.19" height="12.77" transform="translate(509.87 234.06) rotate(180)"/><rect class="cls-2" x="251.84" y="118.66" width="6.19" height="4.76" transform="translate(509.87 242.07) rotate(180)"/><rect class="cls-3" x="240.94" y="110.65" width="6.19" height="12.77" transform="translate(488.07 234.06) rotate(180)"/><rect class="cls-4" x="239.78" y="98.25" width="19.42" height="15.6" transform="translate(498.97 212.09) rotate(180)"/><rect class="cls-2" x="239.78" y="73.8" width="19.42" height="24.45" transform="translate(498.97 172.05) rotate(180)"/><rect class="cls-2" x="240.94" y="118.66" width="6.19" height="4.76" transform="translate(488.07 242.07) rotate(180)"/><rect class="cls-6" x="243.05" y="109.6" width="2.11" height="4.24"/><rect class="cls-6" x="248.43" y="109.6" width="2.11" height="4.24"/><rect class="cls-6" x="253.81" y="109.6" width="2.11" height="4.24"/><path class="cls-1" d="M258,123.41h-6.19v2.26a2.64,2.64,0,0,0,2.58,2.69h6.11a1.23,1.23,0,0,0,1.2-1.25h0a1.3,1.3,0,0,0-.45-1Z"/><path class="cls-1" d="M247.13,123.41h-6.19v2.26a2.64,2.64,0,0,0,2.59,2.69h6.1a1.22,1.22,0,0,0,1.2-1.25h0a1.26,1.26,0,0,0-.45-1Z"/><ellipse class="cls-2" cx="239.78" cy="77.28" rx="3.34" ry="3.48"/><ellipse class="cls-3" cx="239.78" cy="101.4" rx="3.34" ry="3.48"/><rect class="cls-3" x="236.44" y="77.28" width="6.68" height="12.06" transform="translate(479.55 166.62) rotate(180)"/><rect class="cls-3" x="236.44" y="89.34" width="6.68" height="12.06" transform="translate(479.55 190.75) rotate(180)"/><ellipse class="cls-3" cx="239.78" cy="89.34" rx="3.34" ry="3.48"/><rect class="cls-2" x="236.44" y="77.28" width="6.68" height="7.75" transform="translate(479.55 162.32) rotate(180)"/><path class="cls-10" d="M252.43,90a1,1,0,1,0,1-1.06A1,1,0,0,0,252.43,90Z"/><path class="cls-10" d="M252.43,94.83a1,1,0,1,0,1-1A1,1,0,0,0,252.43,94.83Z"/><path class="cls-10" d="M252.43,85.57a1,1,0,1,1,1,1.05A1,1,0,0,1,252.43,85.57Z"/><path class="cls-3" d="M259.67,57.28V66c0,4.29-2.25,6.77-5.36,7.77H244.9V57.28Z"/><path class="cls-1" d="M253.19,61.5a.6.6,0,0,1,.59.61v1.71a.6.6,0,1,1-1.19,0V62.11A.6.6,0,0,1,253.19,61.5Z"/><path class="cls-1" d="M257.42,61.5a.6.6,0,0,1,.6.61v1.71a.6.6,0,1,1-1.19,0V62.11A.6.6,0,0,1,257.42,61.5Z"/><path class="cls-5" d="M255.31,70a2,2,0,0,0,2-2.06h-3.95A2,2,0,0,0,255.31,70Z"/><path class="cls-7" d="M246.61,50.29v7h-6.7A6.85,6.85,0,0,1,246.61,50.29Z"/><path class="cls-7" d="M254.38,50.29v7h6.69A6.84,6.84,0,0,0,254.38,50.29Z"/><rect class="cls-7" x="246.61" y="50.29" width="7.76" height="6.98"/><path class="cls-7" d="M257.23,59.81V57.28h2.44A2.48,2.48,0,0,1,257.23,59.81Z"/><rect class="cls-7" x="249.72" y="57.28" width="7.51" height="2.54" transform="translate(506.96 117.09) rotate(180)"/><rect class="cls-10" x="252.43" y="94.83" width="2.02" height="3.42"/><path class="cls-2" d="M245.63,70.8a2.94,2.94,0,0,1,2.88,3h-2.88Z"/><rect class="cls-2" x="243.4" y="70.8" width="2.23" height="3" transform="translate(489.02 144.6) rotate(180)"/><rect class="cls-3" x="250.82" y="73.8" width="3.49" height="2.41"/><path class="cls-3" d="M248.51,73.8a2.36,2.36,0,0,0,2.31,2.41V73.8Z"/><polygon class="cls-6" points="252.2 81.55 249.87 80.55 251.59 76.22 254.31 76.22 252.2 81.55"/><polygon class="cls-4" points="253.7 81.55 256.03 80.55 254.31 76.22 251.59 76.22 253.7 81.55"/><rect class="cls-7" x="247.16" y="57.28" width="2.56" height="8.92" transform="translate(496.89 123.48) rotate(180)"/><path class="cls-7" d="M249.72,66.2a2.61,2.61,0,0,1-2.56,2.67V66.2Z"/><rect class="cls-7" x="244.9" y="57.28" width="2.26" height="6.72"/><path class="cls-3" d="M242.65,64a2.26,2.26,0,1,0,2.25-2.35A2.3,2.3,0,0,0,242.65,64Z"/><rect class="cls-7" x="110.41" y="62.36" width="4.48" height="5.13" transform="translate(225.31 129.84) rotate(180)"/><path class="cls-7" d="M114.9,67.48a4.58,4.58,0,0,1-4.49,4.67V67.48Z"/><path class="cls-7" d="M110.41,62.36a4.58,4.58,0,0,1,4.49-4.68v4.68Z"/><path class="cls-7" d="M113.63,57.28v3.91c0,4.87,1.27,8.49,5,9.32V57.28Z"/><ellipse class="cls-11" cx="132.91" cy="77.28" rx="3.34" ry="3.48"/><ellipse class="cls-3" cx="132.91" cy="101.4" rx="3.34" ry="3.48"/><rect class="cls-11" x="129.57" y="77.28" width="6.68" height="12.06" transform="translate(265.82 166.62) rotate(180)"/><rect class="cls-11" x="129.57" y="89.34" width="6.68" height="12.06" transform="translate(265.82 190.75) rotate(180)"/><ellipse class="cls-11" cx="132.91" cy="89.34" rx="3.34" ry="3.48"/><rect class="cls-1" x="125.56" y="110.65" width="6.19" height="12.77" transform="translate(257.3 234.06) rotate(180)"/><path class="cls-2" d="M129.44,70.8a2.94,2.94,0,0,1,2.88,3h-2.88Z"/><rect class="cls-2" x="126.75" y="70.8" width="2.7" height="3" transform="translate(256.19 144.6) rotate(180)"/><rect class="cls-1" x="114.66" y="110.65" width="6.19" height="12.77" transform="translate(235.51 234.06) rotate(180)"/><rect class="cls-8" x="113.49" y="98.25" width="19.42" height="15.6" transform="translate(246.41 212.09) rotate(180)"/><rect class="cls-11" x="113.49" y="73.8" width="19.42" height="24.45" transform="translate(246.41 172.05) rotate(180)"/><path class="cls-3" d="M133.39,57.28V66c0,4.29-2.25,6.77-5.36,7.77h-9.41V57.28Z"/><path class="cls-1" d="M126.9,61.5a.6.6,0,0,1,.6.61v1.71a.6.6,0,1,1-1.19,0V62.11A.6.6,0,0,1,126.9,61.5Z"/><path class="cls-1" d="M131.14,61.5a.6.6,0,0,1,.59.61v1.71a.6.6,0,0,1-.59.61.6.6,0,0,1-.59-.61V62.11A.6.6,0,0,1,131.14,61.5Z"/><path class="cls-5" d="M129,70A2,2,0,0,0,131,68h-4A2,2,0,0,0,129,70Z"/><path class="cls-2" d="M119.3,70.8a2.94,2.94,0,0,1,2.88,3H119.3Z"/><rect class="cls-2" x="117.07" y="70.8" width="2.23" height="3" transform="translate(236.37 144.6) rotate(180)"/><ellipse class="cls-11" cx="113.49" cy="77.28" rx="3.34" ry="3.48"/><ellipse class="cls-3" cx="113.49" cy="101.4" rx="3.34" ry="3.48"/><rect class="cls-11" x="110.16" y="77.28" width="6.68" height="12.06" transform="translate(226.99 166.62) rotate(180)"/><rect class="cls-11" x="110.16" y="89.34" width="6.68" height="12.06" transform="translate(226.99 190.75) rotate(180)"/><ellipse class="cls-11" cx="113.49" cy="89.34" rx="3.34" ry="3.48"/><path class="cls-7" d="M118.62,63.17c3.52,0,5-2.22,5-5.89h-5Z"/><path class="cls-3" d="M116.37,64a2.26,2.26,0,1,0,2.25-2.35A2.3,2.3,0,0,0,116.37,64Z"/><path class="cls-7" d="M120.33,50.29v7h-6.7A6.85,6.85,0,0,1,120.33,50.29Z"/><path class="cls-7" d="M128.09,50.29v7h6.7A6.85,6.85,0,0,0,128.09,50.29Z"/><rect class="cls-7" x="120.33" y="50.29" width="7.76" height="6.98"/><rect class="cls-9" x="116.77" y="109.6" width="2.11" height="4.24"/><rect class="cls-9" x="122.15" y="109.6" width="2.11" height="4.24"/><rect class="cls-9" x="127.53" y="109.6" width="2.11" height="4.24"/><path class="cls-1" d="M131.74,123.41h-6.18v2.26a2.64,2.64,0,0,0,2.58,2.69h6.11a1.23,1.23,0,0,0,1.2-1.25h0a1.3,1.3,0,0,0-.45-1Z"/><path class="cls-1" d="M120.85,123.41h-6.19v2.26a2.64,2.64,0,0,0,2.59,2.69h6.1a1.23,1.23,0,0,0,1.2-1.25h0a1.26,1.26,0,0,0-.45-1Z"/><path class="cls-7" d="M129.16,57.28A3.22,3.22,0,0,1,126,60.56V57.28Z"/><path class="cls-7" d="M129.16,57.28a3.22,3.22,0,0,0,3.15,3.28V57.28Z"/><rect class="cls-7" x="121.4" y="57.28" width="4.6" height="3.29"/><polygon class="cls-2" points="126.04 80.76 122.18 73.8 129.89 73.8 126.04 80.76"/><polygon class="cls-8" points="126.04 80.76 127.44 78.22 127.3 73.8 124.78 73.8 124.63 78.22 126.04 80.76"/><rect class="cls-7" x="132.31" y="57.28" width="2.48" height="3.29"/><path class="cls-1" d="M117.61,80a.8.8,0,0,0-.78.82V94.25a.78.78,0,1,0,1.56,0V80.77A.8.8,0,0,0,117.61,80Z"/><path class="cls-1" d="M132.13,80a.79.79,0,0,0-.77.82V94.25a.79.79,0,0,0,.77.82.8.8,0,0,0,.78-.82V80.77A.8.8,0,0,0,132.13,80Z"/><ellipse class="cls-2" cx="48.72" cy="77.28" rx="3.34" ry="3.48"/><ellipse class="cls-3" cx="48.72" cy="101.4" rx="3.34" ry="3.48"/><rect class="cls-2" x="45.39" y="77.28" width="6.68" height="12.06" transform="translate(97.45 166.62) rotate(180)"/><rect class="cls-2" x="45.39" y="89.34" width="6.68" height="12.06" transform="translate(97.45 190.75) rotate(180)"/><rect class="cls-8" x="45.39" y="98.25" width="6.68" height="3.16" transform="translate(97.45 199.65) rotate(180)"/><ellipse class="cls-2" cx="48.72" cy="89.34" rx="3.34" ry="3.48"/><rect class="cls-3" x="41.37" y="110.65" width="6.19" height="12.77" transform="translate(88.93 234.06) rotate(180)"/><rect class="cls-1" x="41.37" y="118.66" width="6.19" height="4.76" transform="translate(88.93 242.07) rotate(180)"/><rect class="cls-3" x="30.47" y="110.65" width="6.19" height="12.77" transform="translate(67.14 234.06) rotate(180)"/><rect class="cls-8" x="29.31" y="98.25" width="19.42" height="15.6" transform="translate(78.03 212.09) rotate(180)"/><rect class="cls-2" x="29.31" y="73.8" width="19.42" height="24.45" transform="translate(78.03 172.05) rotate(180)"/><rect class="cls-1" x="30.47" y="118.66" width="6.19" height="4.76" transform="translate(67.14 242.07) rotate(180)"/><rect class="cls-9" x="32.58" y="109.6" width="2.11" height="4.24"/><rect class="cls-9" x="37.96" y="109.6" width="2.11" height="4.24"/><rect class="cls-9" x="43.34" y="109.6" width="2.11" height="4.24"/><path class="cls-1" d="M47.56,123.41H41.37v2.26A2.64,2.64,0,0,0,44,128.36h6.11a1.23,1.23,0,0,0,1.2-1.25h0a1.3,1.3,0,0,0-.45-1Z"/><path class="cls-1" d="M36.66,123.41H30.47v2.26a2.64,2.64,0,0,0,2.59,2.69h6.1a1.22,1.22,0,0,0,1.2-1.25h0a1.26,1.26,0,0,0-.45-1Z"/><ellipse class="cls-2" cx="29.31" cy="77.28" rx="3.34" ry="3.48"/><ellipse class="cls-3" cx="29.31" cy="101.4" rx="3.34" ry="3.48"/><rect class="cls-2" x="25.97" y="77.28" width="6.68" height="12.06" transform="translate(58.61 166.62) rotate(180)"/><rect class="cls-2" x="25.97" y="89.34" width="6.68" height="12.06" transform="translate(58.61 190.75) rotate(180)"/><rect class="cls-8" x="25.97" y="98.25" width="6.68" height="3.16" transform="translate(58.61 199.65) rotate(180)"/><ellipse class="cls-2" cx="29.31" cy="89.34" rx="3.34" ry="3.48"/><path class="cls-10" d="M42.83,94.83a1,1,0,1,0,1-1A1,1,0,0,0,42.83,94.83Z"/><rect class="cls-10" x="42.83" y="94.83" width="2.02" height="3.42"/><path class="cls-10" d="M33.42,81.28a.79.79,0,0,0-.77.81V95.58a.79.79,0,0,0,.77.81.79.79,0,0,0,.78-.81V82.09A.79.79,0,0,0,33.42,81.28Z"/><path class="cls-10" d="M48,81.28a.79.79,0,0,0-.78.81V95.58a.79.79,0,0,0,.78.81.79.79,0,0,0,.77-.81V82.09A.79.79,0,0,0,48,81.28Z"/><path class="cls-4" d="M43.84,90.41h0a5.51,5.51,0,0,0,1.67-4.22l-.43-10H42.61l-.44,10A5.51,5.51,0,0,0,43.84,90.41Z"/><path class="cls-8" d="M43.84,79.24a3.63,3.63,0,0,0,3.56-3.71H43.84Z"/><path class="cls-8" d="M43.84,72.73H45.2a2.2,2.2,0,0,1,2.2,2.2v.6a0,0,0,0,1,0,0H43.84a0,0,0,0,1,0,0v-2.8A0,0,0,0,1,43.84,72.73Z"/><polygon class="cls-3" points="43.84 73.8 43.84 79.24 38 73.8 43.84 73.8"/><ellipse class="cls-1" cx="29.45" cy="61.9" rx="2.87" ry="2.99"/><path class="cls-3" d="M49.2,57.28V66c0,4.29-2.24,6.77-5.36,7.77h-9.4V57.28Z"/><path class="cls-1" d="M42.72,61.5a.6.6,0,0,1,.59.61v1.71a.6.6,0,0,1-.59.61.6.6,0,0,1-.59-.61V62.11A.6.6,0,0,1,42.72,61.5Z"/><path class="cls-1" d="M47,61.5a.6.6,0,0,1,.59.61v1.71a.6.6,0,1,1-1.19,0V62.11A.6.6,0,0,1,47,61.5Z"/><path class="cls-1" d="M29.44,57.28v3.91c0,4.87,1.28,8.49,5,9.32V57.28Z"/><path class="cls-5" d="M44.84,70a2,2,0,0,0,2-2.06h-4A2,2,0,0,0,44.84,70Z"/><path class="cls-1" d="M34.44,63.17c3.51,0,5-2.22,5-5.89h-5Z"/><path class="cls-3" d="M32.18,64a2.26,2.26,0,1,0,2.26-2.35A2.3,2.3,0,0,0,32.18,64Z"/><path class="cls-1" d="M36.14,50.29v7h-6.7A6.85,6.85,0,0,1,36.14,50.29Z"/><path class="cls-1" d="M43.91,50.29v7h6.7A6.85,6.85,0,0,0,43.91,50.29Z"/><path class="cls-1" d="M41.88,59.81V57.28H39.45A2.48,2.48,0,0,0,41.88,59.81Z"/><rect class="cls-1" x="36.14" y="50.29" width="7.76" height="6.98"/><rect class="cls-1" x="41.88" y="57.28" width="8.72" height="2.54"/><path class="cls-8" d="M43.84,79.24l-6.21-5.77a2.68,2.68,0,0,0-1.85-.74H32.3a1,1,0,0,0-1,1.26,6.33,6.33,0,0,0,6.13,5.25Z"/><circle class="cls-2" cx="25.95" cy="105.19" r="3.86"/><circle class="cls-3" cx="25.95" cy="131.92" r="3.86"/><rect class="cls-3" x="22.09" y="105.19" width="7.71" height="13.36" transform="translate(51.89 223.75) rotate(180)"/><rect class="cls-3" x="22.09" y="118.56" width="7.71" height="13.36" transform="translate(51.89 250.48) rotate(180)"/><circle class="cls-3" cx="25.95" cy="118.56" r="3.86"/><rect class="cls-2" x="22.09" y="105.19" width="7.71" height="11.48" transform="translate(51.89 221.86) rotate(180)"/><path class="cls-2" d="M21.34,98.36a3,3,0,0,1,3,3h-3Z"/><rect class="cls-2" x="18.56" y="98.36" width="2.78" height="2.97" transform="translate(39.9 199.7) rotate(180)"/><path class="cls-1" d="M28.18,78.06A6.91,6.91,0,0,1,21.27,85V78.06Z"/><path class="cls-1" d="M28.21,82.17a2.8,2.8,0,0,1-2.8,2.8v-2.8Z"/><path class="cls-1" d="M21.27,78.06V85H5c0-3.82,2.53-6.91,5.64-6.91Z"/><rect class="cls-3" x="3.86" y="135.78" width="7.13" height="14.12" transform="translate(14.84 285.67) rotate(180)"/><rect class="cls-12" x="3.86" y="135.78" width="7.13" height="6.21" transform="translate(14.84 277.76) rotate(180)"/><rect class="cls-12" x="3.86" y="128.67" width="22.09" height="7.11" transform="translate(29.8 264.44) rotate(180)"/><rect class="cls-2" x="3.86" y="101.33" width="22.09" height="27.33" transform="translate(29.8 230) rotate(180)"/><rect class="cls-8" x="3.86" y="125.53" width="22.09" height="3.14" transform="translate(29.8 254.2) rotate(180)"/><path class="cls-3" d="M25.41,85v8.67a7.44,7.44,0,0,1-5.53,7.69H10.17V85Z"/><path class="cls-1" d="M18.72,89.15a.61.61,0,0,1,.61.61v1.69a.61.61,0,0,1-1.22,0V89.76A.61.61,0,0,1,18.72,89.15Z"/><path class="cls-1" d="M23.1,89.15a.61.61,0,0,1,.61.61v1.69a.62.62,0,0,1-.61.61.61.61,0,0,1-.61-.61V89.76A.61.61,0,0,1,23.1,89.15Z"/><path class="cls-1" d="M11,149.89a5.47,5.47,0,0,1,5.47,5.47H3.86v-5.47Z"/><rect class="cls-3" x="18.82" y="135.78" width="7.13" height="14.12" transform="translate(44.76 285.67) rotate(180)"/><rect class="cls-2" x="3.86" y="146.61" width="7.13" height="3.28" transform="translate(14.84 296.51) rotate(180)"/><rect class="cls-2" x="18.82" y="146.61" width="7.13" height="3.28" transform="translate(44.76 296.51) rotate(180)"/><rect class="cls-12" x="18.82" y="135.78" width="7.13" height="6.21" transform="translate(44.76 277.76) rotate(180)"/><path class="cls-1" d="M26,149.89a5.47,5.47,0,0,1,5.47,5.47H18.82v-5.47Z"/><path class="cls-13" d="M5,85v3.87c0,4.82,1.32,8.42,5.15,9.23V85Z"/><polygon class="cls-3" points="19.88 101.33 19.88 106.72 13.85 101.33 19.88 101.33"/><path class="cls-5" d="M20.91,97.59a2,2,0,0,0,2-2H18.87A2,2,0,0,0,20.91,97.59Z"/><path class="cls-10" d="M18.84,113.06a1,1,0,1,0,1-1A1,1,0,0,0,18.84,113.06Z"/><path class="cls-10" d="M18.84,119a1,1,0,1,0,1-1A1,1,0,0,0,18.84,119Z"/><path class="cls-2" d="M10.88,98.36a3,3,0,0,1,3,3h-3Z"/><rect class="cls-2" x="8.57" y="98.36" width="2.3" height="2.97" transform="translate(19.45 199.7) rotate(180)"/><rect class="cls-1" x="21.27" y="82.17" width="4.15" height="2.8"/><rect class="cls-8" x="22.8" y="101.33" width="3.15" height="24.2" transform="translate(48.75 226.87) rotate(180)"/><path class="cls-8" d="M3.92,101.33h8.14a0,0,0,0,1,0,0v24.2a0,0,0,0,1,0,0H10.39a6.47,6.47,0,0,1-6.47-6.47V101.33A0,0,0,0,1,3.92,101.33Z" transform="translate(15.99 226.87) rotate(180)"/><circle class="cls-2" cx="3.86" cy="105.19" r="3.86"/><circle class="cls-3" cx="3.86" cy="131.92" r="3.86"/><rect class="cls-3" y="105.19" width="7.71" height="13.36" transform="translate(7.71 223.75) rotate(180)"/><rect class="cls-3" y="118.56" width="7.71" height="13.36" transform="translate(7.71 250.48) rotate(180)"/><circle class="cls-3" cx="3.86" cy="118.56" r="3.86"/><rect class="cls-2" y="105.19" width="7.71" height="11.48" transform="translate(7.71 221.86) rotate(180)"/><path class="cls-13" d="M10.17,90.81c3.64,0,5.18-2.2,5.18-5.84H10.17Z"/><circle class="cls-3" cx="10.17" cy="91.63" r="2.33"/><circle class="cls-2" cx="155.93" cy="105.19" r="3.86"/><circle class="cls-3" cx="155.93" cy="131.92" r="3.86"/><rect class="cls-3" x="152.07" y="105.19" width="7.71" height="13.36" transform="translate(311.85 223.75) rotate(180)"/><rect class="cls-3" x="152.07" y="118.56" width="7.71" height="13.36" transform="translate(311.85 250.48) rotate(180)"/><circle class="cls-3" cx="155.93" cy="118.56" r="3.86"/><rect class="cls-2" x="152.07" y="105.19" width="7.71" height="11.48" transform="translate(311.85 221.86) rotate(180)"/><path class="cls-2" d="M151.32,98.36a3,3,0,0,1,3,3h-3Z"/><rect class="cls-2" x="148.54" y="98.36" width="2.78" height="2.97" transform="translate(299.86 199.7) rotate(180)"/><path class="cls-1" d="M158.16,78.06A6.91,6.91,0,0,1,151.25,85V78.06Z"/><path class="cls-1" d="M158.19,82.17a2.8,2.8,0,0,1-2.8,2.8v-2.8Z"/><path class="cls-1" d="M151.25,78.06V85H135c0-3.82,2.53-6.91,5.64-6.91Z"/><rect class="cls-1" x="133.84" y="135.78" width="7.13" height="14.12" transform="translate(274.8 285.67) rotate(180)"/><rect class="cls-1" x="133.84" y="128.67" width="22.09" height="7.11" transform="translate(289.76 264.44) rotate(180)"/><rect class="cls-2" x="133.84" y="101.33" width="22.09" height="27.33" transform="translate(289.76 230) rotate(180)"/><path class="cls-3" d="M155.39,85v8.67a7.44,7.44,0,0,1-5.53,7.69h-9.71V85Z"/><path class="cls-1" d="M148.7,89.15a.61.61,0,0,1,.61.61v1.69a.61.61,0,1,1-1.22,0V89.76A.61.61,0,0,1,148.7,89.15Z"/><path class="cls-1" d="M153.08,89.15a.61.61,0,0,1,.61.61v1.69a.62.62,0,0,1-.61.61.61.61,0,0,1-.61-.61V89.76A.61.61,0,0,1,153.08,89.15Z"/><path class="cls-1" d="M141,149.89a5.47,5.47,0,0,1,5.47,5.47h-12.6v-5.47Z"/><rect class="cls-1" x="148.8" y="135.78" width="7.13" height="14.12" transform="translate(304.72 285.67) rotate(180)"/><path class="cls-1" d="M155.93,149.89a5.47,5.47,0,0,1,5.47,5.47H148.8v-5.47Z"/><path class="cls-1" d="M135,85v3.87c0,4.82,1.32,8.42,5.15,9.23V85Z"/><path class="cls-5" d="M150.89,97.59a2,2,0,0,0,2-2h-4.08A2,2,0,0,0,150.89,97.59Z"/><path class="cls-2" d="M140.86,98.36a3,3,0,0,1,3,3h-3Z"/><rect class="cls-2" x="138.55" y="98.36" width="2.3" height="2.97" transform="translate(279.41 199.7) rotate(180)"/><rect class="cls-1" x="151.25" y="82.17" width="4.15" height="2.8"/><circle class="cls-2" cx="133.84" cy="105.19" r="3.86"/><circle class="cls-3" cx="133.84" cy="131.92" r="3.86"/><rect class="cls-3" x="129.98" y="105.19" width="7.71" height="13.36" transform="translate(267.67 223.75) rotate(180)"/><rect class="cls-3" x="129.98" y="118.56" width="7.71" height="13.36" transform="translate(267.67 250.48) rotate(180)"/><circle class="cls-3" cx="133.84" cy="118.56" r="3.86"/><rect class="cls-2" x="129.98" y="105.19" width="7.71" height="11.48" transform="translate(267.67 221.86) rotate(180)"/><path class="cls-1" d="M140.15,90.81c3.64,0,5.18-2.2,5.18-5.84h-5.18Z"/><circle class="cls-3" cx="140.15" cy="91.63" r="2.33"/><polygon class="cls-1" points="145.76 122.1 148.18 124.32 150.6 122.1 149.86 101.33 146.5 101.33 145.76 122.1"/><circle class="cls-2" cx="112.6" cy="105.19" r="3.86"/><circle class="cls-3" cx="112.6" cy="131.92" r="3.86"/><rect class="cls-3" x="108.74" y="105.19" width="7.71" height="13.36" transform="translate(225.2 223.75) rotate(180)"/><rect class="cls-3" x="108.74" y="118.56" width="7.71" height="13.36" transform="translate(225.2 250.48) rotate(180)"/><circle class="cls-3" cx="112.6" cy="118.56" r="3.86"/><rect class="cls-2" x="108.74" y="105.19" width="7.71" height="11.48" transform="translate(225.2 221.86) rotate(180)"/><path class="cls-2" d="M108,98.36a3,3,0,0,1,3,3h-3Z"/><rect class="cls-2" x="105.21" y="98.36" width="2.78" height="2.97" transform="translate(213.21 199.7) rotate(180)"/><rect class="cls-3" x="90.51" y="135.78" width="7.13" height="14.12" transform="translate(188.15 285.67) rotate(180)"/><rect class="cls-1" x="90.51" y="135.78" width="7.13" height="6.21" transform="translate(188.15 277.76) rotate(180)"/><rect class="cls-1" x="90.51" y="128.67" width="22.09" height="7.11" transform="translate(203.11 264.44) rotate(180)"/><rect class="cls-2" x="90.51" y="101.33" width="22.09" height="27.33" transform="translate(203.11 230) rotate(180)"/><rect class="cls-11" x="90.51" y="125.53" width="22.09" height="3.14" transform="translate(203.11 254.2) rotate(180)"/><rect class="cls-10" x="104.06" y="125.53" width="4.95" height="3.14" transform="translate(213.07 254.2) rotate(180)"/><path class="cls-3" d="M112.07,85v8.67a7.45,7.45,0,0,1-5.53,7.69H96.83V85Z"/><path class="cls-1" d="M105.38,89.15a.61.61,0,0,1,.61.61v1.69a.62.62,0,0,1-1.23,0V89.76A.61.61,0,0,1,105.38,89.15Z"/><path class="cls-1" d="M109.75,89.15a.61.61,0,0,1,.61.61v1.69a.61.61,0,0,1-1.22,0V89.76A.61.61,0,0,1,109.75,89.15Z"/><path class="cls-1" d="M97.64,149.89a5.47,5.47,0,0,1,5.47,5.47H90.51v-5.47Z"/><rect class="cls-3" x="105.47" y="135.78" width="7.13" height="14.12" transform="translate(218.07 285.67) rotate(180)"/><rect class="cls-2" x="90.51" y="146.61" width="7.13" height="3.28" transform="translate(188.15 296.51) rotate(180)"/><rect class="cls-2" x="105.47" y="146.61" width="7.13" height="3.28" transform="translate(218.07 296.51) rotate(180)"/><rect class="cls-1" x="105.47" y="135.78" width="7.13" height="6.21" transform="translate(218.07 277.76) rotate(180)"/><path class="cls-1" d="M112.6,149.89a5.47,5.47,0,0,1,5.47,5.47h-12.6v-5.47Z"/><path class="cls-13" d="M91.68,85v3.87c0,4.82,1.31,8.42,5.15,9.23V85Z"/><polygon class="cls-3" points="106.54 101.33 106.54 106.72 100.5 101.33 106.54 101.33"/><path class="cls-5" d="M107.56,97.59a2,2,0,0,0,2-2h-4.08A2,2,0,0,0,107.56,97.59Z"/><path class="cls-10" d="M105.49,113.06a1,1,0,1,0,1.05-1A1,1,0,0,0,105.49,113.06Z"/><path class="cls-10" d="M105.49,119a1,1,0,1,0,1.05-1A1,1,0,0,0,105.49,119Z"/><path class="cls-2" d="M97.53,98.36a3,3,0,0,1,3,3h-3Z"/><rect class="cls-2" x="95.23" y="98.36" width="2.3" height="2.97" transform="translate(192.75 199.7) rotate(180)"/><circle class="cls-2" cx="90.51" cy="105.19" r="3.86"/><circle class="cls-3" cx="90.51" cy="131.92" r="3.86"/><rect class="cls-3" x="86.65" y="105.19" width="7.71" height="13.36" transform="translate(181.02 223.75) rotate(180)"/><rect class="cls-3" x="86.65" y="118.56" width="7.71" height="13.36" transform="translate(181.02 250.48) rotate(180)"/><circle class="cls-3" cx="90.51" cy="118.56" r="3.86"/><rect class="cls-2" x="86.65" y="105.19" width="7.71" height="11.48" transform="translate(181.02 221.86) rotate(180)"/><path class="cls-13" d="M96.83,90.81c3.63,0,5.17-2.2,5.17-5.84H96.83Z"/><circle class="cls-3" cx="96.83" cy="91.63" r="2.33"/><path class="cls-1" d="M106.43,78.06H97.32c-3.12,0-5.64,3.09-5.64,6.91h20.39C112.07,81.15,109.54,78.06,106.43,78.06Z"/><circle class="cls-2" cx="69.27" cy="105.19" r="3.86"/><circle class="cls-3" cx="69.27" cy="131.92" r="3.86"/><rect class="cls-3" x="65.42" y="105.19" width="7.71" height="13.36" transform="translate(138.55 223.75) rotate(180)"/><rect class="cls-3" x="65.42" y="118.56" width="7.71" height="13.36" transform="translate(138.55 250.48) rotate(180)"/><circle class="cls-3" cx="69.27" cy="118.56" r="3.86"/><rect class="cls-2" x="65.42" y="105.19" width="7.71" height="11.48" transform="translate(138.55 221.86) rotate(180)"/><path class="cls-2" d="M64.67,98.36a3,3,0,0,1,3,3h-3Z"/><rect class="cls-2" x="61.89" y="98.36" width="2.78" height="2.97" transform="translate(126.55 199.7) rotate(180)"/><rect class="cls-12" x="47.18" y="135.78" width="7.13" height="14.12" transform="translate(101.5 285.67) rotate(180)"/><rect class="cls-12" x="47.18" y="128.67" width="22.09" height="7.11" transform="translate(116.46 264.44) rotate(180)"/><rect class="cls-12" x="47.18" y="101.33" width="22.09" height="27.33" transform="translate(116.46 230) rotate(180)"/><rect class="cls-8" x="47.18" y="125.53" width="22.09" height="3.14" transform="translate(116.46 254.2) rotate(180)"/><path class="cls-3" d="M68.74,85v8.67a7.45,7.45,0,0,1-5.53,7.69H53.5V85Z"/><path class="cls-1" d="M62.05,89.15a.61.61,0,0,1,.61.61v1.69a.61.61,0,0,1-1.22,0V89.76A.61.61,0,0,1,62.05,89.15Z"/><path class="cls-1" d="M66.42,89.15a.61.61,0,0,1,.61.61v1.69a.61.61,0,0,1-.61.61.62.62,0,0,1-.61-.61V89.76A.61.61,0,0,1,66.42,89.15Z"/><path class="cls-1" d="M54.31,149.89a5.47,5.47,0,0,1,5.48,5.47H47.18v-5.47Z"/><rect class="cls-12" x="62.14" y="135.78" width="7.13" height="14.12" transform="translate(131.42 285.67) rotate(180)"/><path class="cls-1" d="M69.27,149.89a5.47,5.47,0,0,1,5.48,5.47H62.14v-5.47Z"/><path class="cls-7" d="M48.35,85v3.87c0,4.82,1.31,8.42,5.15,9.23V85Z"/><path class="cls-5" d="M64.24,97.59a2,2,0,0,0,2-2H62.2A2,2,0,0,0,64.24,97.59Z"/><path class="cls-2" d="M54.2,98.36a3,3,0,0,1,3,3h-3Z"/><rect class="cls-2" x="50.79" y="98.36" width="3.41" height="2.97" transform="translate(104.99 199.7) rotate(180)"/><circle class="cls-2" cx="47.18" cy="105.19" r="3.86"/><circle class="cls-3" cx="47.18" cy="131.92" r="3.86"/><rect class="cls-3" x="43.33" y="105.19" width="7.71" height="13.36" transform="translate(94.37 223.75) rotate(180)"/><rect class="cls-3" x="43.33" y="118.56" width="7.71" height="13.36" transform="translate(94.37 250.48) rotate(180)"/><circle class="cls-3" cx="47.18" cy="118.56" r="3.86"/><rect class="cls-2" x="43.33" y="105.19" width="7.71" height="11.48" transform="translate(94.37 221.86) rotate(180)"/><path class="cls-7" d="M53.5,90.81c3.63,0,5.17-2.2,5.17-5.84H53.5Z"/><path class="cls-3" d="M51.17,91.63A2.33,2.33,0,1,0,53.5,89.3,2.33,2.33,0,0,0,51.17,91.63Z"/><polygon class="cls-2" points="61.15 108.22 57.18 101.33 65.13 101.33 61.15 108.22"/><polygon class="cls-4" points="61.15 108.22 62.61 105.71 62.45 101.33 59.85 101.33 59.7 105.71 61.15 108.22"/><path class="cls-7" d="M65,78.34V81.8H51.53a3.35,3.35,0,0,1,3.23-3.46Z"/><rect class="cls-7" x="51.53" y="81.8" width="14.98" height="3.18"/><path class="cls-7" d="M51.53,81.8A3.17,3.17,0,0,0,48.35,85h3.18Z"/><path class="cls-7" d="M69.47,78.34A6.63,6.63,0,0,1,62.84,85V78.34Z"/><path class="cls-7" d="M69.31,85a2.81,2.81,0,0,0-2.81-2.8V85Z"/><circle class="cls-11" cx="242.58" cy="105.19" r="3.86"/><circle class="cls-3" cx="242.58" cy="131.92" r="3.86"/><rect class="cls-11" x="238.72" y="105.19" width="7.71" height="13.36" transform="translate(485.16 223.75) rotate(180)"/><rect class="cls-11" x="238.72" y="118.56" width="7.71" height="13.36" transform="translate(485.16 250.48) rotate(180)"/><rect class="cls-2" x="238.72" y="128.67" width="7.71" height="3.25" transform="translate(485.16 260.59) rotate(180)"/><circle class="cls-11" cx="242.58" cy="118.56" r="3.86"/><path class="cls-2" d="M238,98.36a3,3,0,0,1,3,3h-3Z"/><rect class="cls-2" x="235.19" y="98.36" width="2.78" height="2.97" transform="translate(473.17 199.7) rotate(180)"/><rect class="cls-1" x="220.49" y="135.78" width="7.13" height="14.12" transform="translate(448.11 285.67) rotate(180)"/><rect class="cls-1" x="220.49" y="128.67" width="22.09" height="7.11" transform="translate(463.07 264.44) rotate(180)"/><rect class="cls-11" x="220.49" y="101.33" width="22.09" height="27.33" transform="translate(463.07 230) rotate(180)"/><path class="cls-3" d="M242.05,85v8.67a7.45,7.45,0,0,1-5.53,7.69h-9.71V85Z"/><path class="cls-1" d="M235.36,89.15a.61.61,0,0,1,.61.61v1.69a.62.62,0,0,1-1.23,0V89.76A.61.61,0,0,1,235.36,89.15Z"/><path class="cls-1" d="M239.73,89.15a.61.61,0,0,1,.61.61v1.69a.61.61,0,0,1-1.22,0V89.76A.61.61,0,0,1,239.73,89.15Z"/><path class="cls-1" d="M227.62,149.89a5.47,5.47,0,0,1,5.47,5.47h-12.6v-5.47Z"/><rect class="cls-1" x="235.45" y="135.78" width="7.13" height="14.12" transform="translate(478.03 285.67) rotate(180)"/><rect class="cls-1" x="220.49" y="146.61" width="7.13" height="3.28" transform="translate(448.11 296.51) rotate(180)"/><rect class="cls-1" x="235.45" y="146.61" width="7.13" height="3.28" transform="translate(478.03 296.51) rotate(180)"/><path class="cls-1" d="M242.58,149.89a5.47,5.47,0,0,1,5.47,5.47h-12.6v-5.47Z"/><path class="cls-7" d="M221.66,85v3.87c0,4.82,1.31,8.42,5.15,9.23V85Z"/><path class="cls-5" d="M237.54,97.59a2,2,0,0,0,2-2H235.5A2,2,0,0,0,237.54,97.59Z"/><path class="cls-2" d="M227.51,98.36a3,3,0,0,1,3,3h-3Z"/><rect class="cls-2" x="225.21" y="98.36" width="2.3" height="2.97" transform="translate(452.71 199.7) rotate(180)"/><circle class="cls-11" cx="220.49" cy="105.19" r="3.86"/><circle class="cls-3" cx="220.49" cy="131.92" r="3.86"/><rect class="cls-11" x="216.63" y="105.19" width="7.71" height="13.36" transform="translate(440.98 223.75) rotate(180)"/><rect class="cls-11" x="216.63" y="118.56" width="7.71" height="13.36" transform="translate(440.98 250.48) rotate(180)"/><rect class="cls-2" x="216.63" y="128.67" width="7.71" height="3.25" transform="translate(440.98 260.59) rotate(180)"/><circle class="cls-11" cx="220.49" cy="118.56" r="3.86"/><path class="cls-7" d="M226.81,90.81c3.63,0,5.17-2.2,5.17-5.84h-5.17Z"/><circle class="cls-3" cx="226.81" cy="91.63" r="2.33"/><path class="cls-7" d="M235.13,78.06h-6.56A6.91,6.91,0,0,0,221.66,85h20.39A6.91,6.91,0,0,0,235.13,78.06Z"/><path class="cls-7" d="M235,88a3,3,0,0,1-3-3h3Z"/><rect class="cls-7" x="234.95" y="84.97" width="7.09" height="2.97"/><polygon class="cls-2" points="234.46 108.22 230.48 101.33 238.44 101.33 234.46 108.22"/><polygon class="cls-8" points="234.46 108.22 235.91 105.71 235.76 101.33 233.16 101.33 233.01 105.71 234.46 108.22"/><path class="cls-1" d="M225.15,109.22a.8.8,0,0,0-.8.81v13.35a.8.8,0,1,0,1.6,0V110A.8.8,0,0,0,225.15,109.22Z"/><path class="cls-1" d="M241.78,109.22a.81.81,0,0,0-.81.81v13.35a.81.81,0,1,0,1.61,0V110A.8.8,0,0,0,241.78,109.22Z"/><circle class="cls-2" cx="199.25" cy="105.19" r="3.86"/><circle class="cls-3" cx="199.25" cy="131.92" r="3.86"/><rect class="cls-3" x="195.4" y="105.19" width="7.71" height="13.36" transform="translate(398.51 223.75) rotate(180)"/><rect class="cls-3" x="195.4" y="118.56" width="7.71" height="13.36" transform="translate(398.51 250.48) rotate(180)"/><circle class="cls-3" cx="199.25" cy="118.56" r="3.86"/><rect class="cls-2" x="195.4" y="105.19" width="7.71" height="11.48" transform="translate(398.51 221.86) rotate(180)"/><path class="cls-2" d="M194.65,98.36a3,3,0,0,1,3,3h-3Z"/><rect class="cls-2" x="191.87" y="98.36" width="2.78" height="2.97" transform="translate(386.51 199.7) rotate(180)"/><rect class="cls-3" x="177.16" y="135.78" width="7.13" height="14.12" transform="translate(361.46 285.67) rotate(180)"/><rect class="cls-12" x="177.16" y="135.78" width="7.13" height="6.21" transform="translate(361.46 277.76) rotate(180)"/><rect class="cls-12" x="177.16" y="128.67" width="22.09" height="7.11" transform="translate(376.42 264.44) rotate(180)"/><rect class="cls-1" x="177.16" y="101.33" width="22.09" height="27.33" transform="translate(376.42 230) rotate(180)"/><rect class="cls-8" x="177.16" y="125.53" width="22.09" height="3.14" transform="translate(376.42 254.2) rotate(180)"/><path class="cls-3" d="M198.72,85v8.67a7.45,7.45,0,0,1-5.53,7.69h-9.71V85Z"/><path class="cls-1" d="M192,89.15a.61.61,0,0,1,.61.61v1.69a.61.61,0,1,1-1.22,0V89.76A.61.61,0,0,1,192,89.15Z"/><path class="cls-1" d="M196.4,89.15a.61.61,0,0,1,.61.61v1.69a.61.61,0,0,1-.61.61.62.62,0,0,1-.61-.61V89.76A.61.61,0,0,1,196.4,89.15Z"/><path class="cls-1" d="M184.29,149.89a5.47,5.47,0,0,1,5.48,5.47H177.16v-5.47Z"/><rect class="cls-3" x="192.12" y="135.78" width="7.13" height="14.12" transform="translate(391.38 285.67) rotate(180)"/><rect class="cls-2" x="177.16" y="146.61" width="7.13" height="3.28" transform="translate(361.46 296.51) rotate(180)"/><rect class="cls-2" x="192.12" y="146.61" width="7.13" height="3.28" transform="translate(391.38 296.51) rotate(180)"/><rect class="cls-12" x="192.12" y="135.78" width="7.13" height="6.21" transform="translate(391.38 277.76) rotate(180)"/><path class="cls-1" d="M199.25,149.89a5.47,5.47,0,0,1,5.48,5.47H192.12v-5.47Z"/><path class="cls-1" d="M178.33,85v3.87c0,4.82,1.31,8.42,5.15,9.23V85Z"/><path class="cls-5" d="M194.22,97.59a2,2,0,0,0,2-2h-4.08A2,2,0,0,0,194.22,97.59Z"/><path class="cls-2" d="M184.18,98.36a3,3,0,0,1,3,3h-3Z"/><rect class="cls-2" x="181.88" y="98.36" width="2.3" height="2.97" transform="translate(366.06 199.7) rotate(180)"/><circle class="cls-2" cx="177.16" cy="105.19" r="3.86"/><circle class="cls-3" cx="177.16" cy="131.92" r="3.86"/><rect class="cls-3" x="173.31" y="105.19" width="7.71" height="13.36" transform="translate(354.33 223.75) rotate(180)"/><rect class="cls-3" x="173.31" y="118.56" width="7.71" height="13.36" transform="translate(354.33 250.48) rotate(180)"/><circle class="cls-3" cx="177.16" cy="118.56" r="3.86"/><rect class="cls-2" x="173.31" y="105.19" width="7.71" height="11.48" transform="translate(354.33 221.86) rotate(180)"/><path class="cls-1" d="M183.48,90.81c3.63,0,5.17-2.2,5.17-5.84h-5.17Z"/><path class="cls-3" d="M181.15,91.63a2.33,2.33,0,1,0,2.33-2.33A2.33,2.33,0,0,0,181.15,91.63Z"/><path class="cls-3" d="M191.8,78.06h-6.56A6.91,6.91,0,0,0,178.33,85h20.39A6.91,6.91,0,0,0,191.8,78.06Z"/><path class="cls-1" d="M179.5,81.12A6.86,6.86,0,0,0,178.33,85h10.32V81.12Z"/><path class="cls-1" d="M179.5,81.12h18V78.06h-12.3A6.91,6.91,0,0,0,179.5,81.12Z"/><path class="cls-1" d="M192.51,81.12h-3.86V85A3.85,3.85,0,0,1,192.51,81.12Z"/><path class="cls-1" d="M196,79.59a1.53,1.53,0,1,0,1.53-1.53A1.54,1.54,0,0,0,196,79.59Z"/><polygon class="cls-2" points="191.13 108.22 187.16 101.33 195.11 101.33 191.13 108.22"/><polygon class="cls-8" points="191.13 108.22 192.59 105.71 192.43 101.33 189.84 101.33 189.68 105.71 191.13 108.22"/><path class="cls-14" d="M60.22,50.64a9.33,9.33,0,0,1-3.86-5A4.34,4.34,0,0,1,56.21,43a2.16,2.16,0,0,1,2-1.56c1.2,0,2,1.28,2.47,2.37a2.54,2.54,0,0,1,4.89-.92c.65,1.56-.36,3.3-1.5,4.54a17,17,0,0,1-4,3.15"/><path class="cls-14" d="M60.54,50.1a8.37,8.37,0,0,1-3.82-5.58c-.13-.94.23-2.5,1.47-2.44,1,.06,1.56,1.3,1.93,2.06.29.6,1.13.26,1.16-.31A2,2,0,0,1,63.41,42a2,2,0,0,1,1.7,2.3,6,6,0,0,1-2,3.19,17.06,17.06,0,0,1-3.39,2.58.63.63,0,0,0,.63,1.08,18,18,0,0,0,3.41-2.55,8.88,8.88,0,0,0,2.33-3.26,3.48,3.48,0,0,0-.54-3.51,3.24,3.24,0,0,0-3.21-1,3.31,3.31,0,0,0-2.35,3l1.17-.32c-.58-1.19-1.43-2.55-2.89-2.67a2.86,2.86,0,0,0-2.84,2.67A7.21,7.21,0,0,0,56.74,48a10,10,0,0,0,3.17,3.21c.68.43,1.3-.65.63-1.08Z"/><path class="cls-14" d="M101.52,50.73a9.29,9.29,0,0,1-3.86-5,4.34,4.34,0,0,1-.15-2.66,2.17,2.17,0,0,1,2-1.56c1.2.05,2,1.29,2.47,2.37a2.54,2.54,0,0,1,4.89-.92c.65,1.56-.35,3.3-1.5,4.54a17,17,0,0,1-4,3.15"/><path class="cls-14" d="M101.84,50.19A8.38,8.38,0,0,1,98,44.61c-.13-.93.23-2.5,1.47-2.43,1,0,1.56,1.29,1.93,2,.29.6,1.14.26,1.17-.31a2,2,0,0,1,2.13-1.84,2,2,0,0,1,1.69,2.3,6,6,0,0,1-2,3.19,16.42,16.42,0,0,1-3.39,2.58.63.63,0,0,0,.63,1.08,18,18,0,0,0,3.41-2.55,8.77,8.77,0,0,0,2.33-3.26,3.48,3.48,0,0,0-.54-3.51,3.25,3.25,0,0,0-3.21-1,3.3,3.3,0,0,0-2.34,3l1.16-.32c-.58-1.18-1.43-2.54-2.88-2.66a2.85,2.85,0,0,0-2.85,2.66A7.2,7.2,0,0,0,98,48.06a10.12,10.12,0,0,0,3.17,3.21c.68.43,1.31-.65.63-1.08Z"/><path class="cls-14" d="M144.52,51.73a9.29,9.29,0,0,1-3.86-5,4.34,4.34,0,0,1-.15-2.66,2.17,2.17,0,0,1,2-1.56c1.2.05,1.95,1.29,2.47,2.37a2.54,2.54,0,0,1,4.89-.92c.65,1.56-.35,3.3-1.5,4.54a17,17,0,0,1-4,3.15"/><path class="cls-14" d="M144.84,51.19A8.38,8.38,0,0,1,141,45.61c-.13-.93.23-2.5,1.47-2.43,1,0,1.56,1.29,1.93,2,.29.6,1.14.26,1.17-.31a2,2,0,0,1,2.13-1.84,2,2,0,0,1,1.69,2.3,6,6,0,0,1-2,3.19,16.42,16.42,0,0,1-3.39,2.58.63.63,0,0,0,.63,1.08,18,18,0,0,0,3.41-2.55,8.77,8.77,0,0,0,2.33-3.26,3.48,3.48,0,0,0-.54-3.51,3.25,3.25,0,0,0-3.21-1,3.3,3.3,0,0,0-2.34,3l1.16-.32c-.58-1.18-1.43-2.54-2.88-2.66a2.85,2.85,0,0,0-2.85,2.66A7.2,7.2,0,0,0,141,49.06a10.12,10.12,0,0,0,3.17,3.21c.68.43,1.31-.65.63-1.08Z"/><path class="cls-14" d="M188.37,51.18a9.27,9.27,0,0,1-3.86-5,4.34,4.34,0,0,1-.15-2.66,2.15,2.15,0,0,1,2-1.56c1.2,0,1.95,1.28,2.47,2.36a2.54,2.54,0,0,1,4.89-.91c.65,1.55-.35,3.3-1.5,4.53a16.76,16.76,0,0,1-4,3.15"/><path class="cls-14" d="M188.69,50.64a8.35,8.35,0,0,1-3.82-5.57c-.13-.94.23-2.51,1.47-2.44,1,.06,1.56,1.29,1.93,2.06.29.59,1.13.25,1.17-.32a1.94,1.94,0,0,1,2.12-1.83,2,2,0,0,1,1.7,2.3,6,6,0,0,1-2,3.18,16.07,16.07,0,0,1-3.39,2.58.63.63,0,0,0,.63,1.08A18,18,0,0,0,192,49.14a8.81,8.81,0,0,0,2.33-3.27,3.47,3.47,0,0,0-.54-3.5,3.21,3.21,0,0,0-3.21-1,3.26,3.26,0,0,0-2.34,3l1.16-.31c-.58-1.19-1.43-2.55-2.88-2.67a2.85,2.85,0,0,0-2.85,2.67,7.21,7.21,0,0,0,1.27,4.46,10.19,10.19,0,0,0,3.17,3.2c.68.44,1.3-.64.63-1.08Z"/><path class="cls-14" d="M229.68,51.28a9.35,9.35,0,0,1-3.87-5,4.34,4.34,0,0,1-.15-2.66,2.16,2.16,0,0,1,2-1.56c1.2,0,2,1.28,2.47,2.36a2.55,2.55,0,0,1,4.9-.91c.65,1.56-.36,3.3-1.51,4.54a17.28,17.28,0,0,1-4,3.15"/><path class="cls-14" d="M230,50.74a8.42,8.42,0,0,1-3.82-5.58c-.13-.94.23-2.5,1.47-2.44,1,.06,1.56,1.3,1.93,2.06.29.59,1.14.26,1.17-.32a2,2,0,0,1,2.13-1.83,2,2,0,0,1,1.69,2.3,6,6,0,0,1-2,3.19,16.77,16.77,0,0,1-3.39,2.58.63.63,0,0,0,.64,1.08,18.76,18.76,0,0,0,3.4-2.55A8.73,8.73,0,0,0,235.58,46a3.47,3.47,0,0,0-.54-3.5,3.23,3.23,0,0,0-3.21-1,3.29,3.29,0,0,0-2.34,3l1.16-.31c-.58-1.19-1.43-2.55-2.88-2.67a2.87,2.87,0,0,0-2.85,2.67,7.21,7.21,0,0,0,1.27,4.46,10.22,10.22,0,0,0,3.17,3.21c.68.43,1.31-.65.63-1.08Z"/><path class="cls-14" d="M11.68,52.28a9.35,9.35,0,0,1-3.87-5,4.34,4.34,0,0,1-.15-2.66,2.16,2.16,0,0,1,2-1.56c1.2,0,1.95,1.28,2.47,2.36a2.55,2.55,0,0,1,4.9-.91c.65,1.56-.36,3.3-1.51,4.54a17.28,17.28,0,0,1-4,3.15"/><path class="cls-14" d="M12,51.74a8.42,8.42,0,0,1-3.82-5.58c-.13-.94.23-2.5,1.47-2.44,1,.06,1.56,1.3,1.93,2.06.29.59,1.14.26,1.17-.32a2,2,0,0,1,2.13-1.83,2,2,0,0,1,1.69,2.3,6,6,0,0,1-2,3.19,16.77,16.77,0,0,1-3.39,2.58.63.63,0,0,0,.64,1.08,18.76,18.76,0,0,0,3.4-2.55A8.73,8.73,0,0,0,17.58,47a3.47,3.47,0,0,0-.54-3.5,3.23,3.23,0,0,0-3.21-1,3.29,3.29,0,0,0-2.34,3l1.16-.31c-.58-1.19-1.43-2.55-2.88-2.67a2.87,2.87,0,0,0-2.85,2.67,7.21,7.21,0,0,0,1.27,4.46,10.22,10.22,0,0,0,3.17,3.21c.68.43,1.31-.65.63-1.08Z"/><g class="cls-15"><path class="cls-16" d="M85.07,39.91a9.29,9.29,0,0,1-3.86-5,4.34,4.34,0,0,1-.15-2.66,2.15,2.15,0,0,1,2-1.56c1.2.05,1.95,1.29,2.47,2.37a2.54,2.54,0,0,1,4.89-.92c.65,1.56-.36,3.3-1.51,4.54a16.76,16.76,0,0,1-4,3.15"/><path class="cls-16" d="M85.39,39.37a8.31,8.31,0,0,1-3.82-5.58c-.14-.93.23-2.5,1.47-2.43,1,.05,1.56,1.29,1.93,2,.29.6,1.13.26,1.16-.31a2,2,0,0,1,2.13-1.84,2,2,0,0,1,1.7,2.3,6,6,0,0,1-2,3.19,16.33,16.33,0,0,1-3.39,2.58.63.63,0,0,0,.63,1.08,17.63,17.63,0,0,0,3.41-2.55A8.88,8.88,0,0,0,91,34.6a3.46,3.46,0,0,0-.54-3.5,3.23,3.23,0,0,0-3.22-1,3.29,3.29,0,0,0-2.34,3l1.17-.32c-.58-1.18-1.43-2.54-2.89-2.66a2.85,2.85,0,0,0-2.84,2.67,7.21,7.21,0,0,0,1.27,4.46,10.09,10.09,0,0,0,3.17,3.2c.67.43,1.3-.65.63-1.08Z"/></g><g class="cls-15"><path class="cls-16" d="M126.37,40a9.3,9.3,0,0,1-3.86-5,4.34,4.34,0,0,1-.15-2.66,2.15,2.15,0,0,1,2-1.56c1.2,0,2,1.28,2.47,2.36a2.54,2.54,0,0,1,4.89-.91c.65,1.55-.35,3.3-1.5,4.53a17,17,0,0,1-4,3.15"/><path class="cls-16" d="M126.69,39.46a8.35,8.35,0,0,1-3.82-5.57c-.13-.94.23-2.51,1.47-2.44,1,.05,1.56,1.29,1.93,2.06.29.59,1.13.25,1.17-.32a2,2,0,0,1,2.12-1.84,2,2,0,0,1,1.7,2.31,6,6,0,0,1-2,3.18,16.07,16.07,0,0,1-3.39,2.58.63.63,0,0,0,.63,1.08A18,18,0,0,0,130,38a8.81,8.81,0,0,0,2.33-3.27,3.47,3.47,0,0,0-.54-3.5,3.21,3.21,0,0,0-3.21-1,3.26,3.26,0,0,0-2.34,3l1.16-.31c-.58-1.19-1.43-2.55-2.88-2.67a2.85,2.85,0,0,0-2.85,2.67,7.21,7.21,0,0,0,1.27,4.46,10.19,10.19,0,0,0,3.17,3.2c.68.44,1.3-.64.63-1.08Z"/></g><g class="cls-15"><path class="cls-16" d="M169.37,41a9.3,9.3,0,0,1-3.86-5,4.34,4.34,0,0,1-.15-2.66,2.15,2.15,0,0,1,2-1.56c1.2,0,1.95,1.28,2.47,2.36a2.54,2.54,0,0,1,4.89-.91c.65,1.55-.35,3.3-1.5,4.53a17,17,0,0,1-4,3.15"/><path class="cls-16" d="M169.69,40.46a8.35,8.35,0,0,1-3.82-5.57c-.13-.94.23-2.51,1.47-2.44,1,0,1.56,1.29,1.93,2.06.29.59,1.13.25,1.17-.32a2,2,0,0,1,2.12-1.84,2,2,0,0,1,1.7,2.31,6,6,0,0,1-2,3.18,16.07,16.07,0,0,1-3.39,2.58.63.63,0,0,0,.63,1.08A18,18,0,0,0,173,39a8.81,8.81,0,0,0,2.33-3.27,3.47,3.47,0,0,0-.54-3.5,3.21,3.21,0,0,0-3.21-1,3.26,3.26,0,0,0-2.34,3l1.16-.31c-.58-1.19-1.43-2.55-2.88-2.67a2.85,2.85,0,0,0-2.85,2.67,7.21,7.21,0,0,0,1.27,4.46,10.19,10.19,0,0,0,3.17,3.2c.68.44,1.3-.64.63-1.08Z"/></g><g class="cls-15"><path class="cls-16" d="M213.22,40.46a9.33,9.33,0,0,1-3.86-5,4.34,4.34,0,0,1-.15-2.66,2.16,2.16,0,0,1,2-1.56c1.2,0,1.95,1.28,2.47,2.37a2.54,2.54,0,0,1,4.89-.92c.65,1.56-.36,3.3-1.5,4.54a17.28,17.28,0,0,1-4,3.15"/><path class="cls-16" d="M213.54,39.92a8.39,8.39,0,0,1-3.82-5.58c-.13-.94.23-2.5,1.47-2.44,1,.06,1.56,1.3,1.93,2.06.29.59,1.13.26,1.16-.31a2,2,0,0,1,2.13-1.84,2,2,0,0,1,1.7,2.3,6,6,0,0,1-2,3.19,17.06,17.06,0,0,1-3.39,2.58.63.63,0,0,0,.63,1.08,18,18,0,0,0,3.41-2.55,8.88,8.88,0,0,0,2.33-3.26,3.48,3.48,0,0,0-.54-3.51,3.24,3.24,0,0,0-3.21-1,3.31,3.31,0,0,0-2.35,3l1.17-.32c-.58-1.19-1.43-2.55-2.89-2.67a2.86,2.86,0,0,0-2.84,2.67,7.21,7.21,0,0,0,1.27,4.46A10,10,0,0,0,212.91,41c.68.43,1.3-.65.63-1.08Z"/></g><g class="cls-15"><path class="cls-16" d="M254.52,40.55a9.33,9.33,0,0,1-3.86-5,4.34,4.34,0,0,1-.15-2.66,2.16,2.16,0,0,1,2-1.56c1.2.05,1.95,1.28,2.47,2.37a2.54,2.54,0,0,1,4.89-.92c.65,1.56-.35,3.3-1.5,4.54a17,17,0,0,1-4,3.15"/><path class="cls-16" d="M254.84,40A8.38,8.38,0,0,1,251,34.43c-.13-.93.23-2.5,1.47-2.43,1,0,1.56,1.29,1.93,2,.29.6,1.14.26,1.17-.31a2,2,0,0,1,2.13-1.84,2,2,0,0,1,1.69,2.3,6,6,0,0,1-2,3.19A16.42,16.42,0,0,1,254.06,40a.63.63,0,0,0,.63,1.08,18,18,0,0,0,3.41-2.55,8.77,8.77,0,0,0,2.33-3.26,3.48,3.48,0,0,0-.54-3.51,3.25,3.25,0,0,0-3.21-1,3.3,3.3,0,0,0-2.34,3l1.16-.32c-.58-1.18-1.43-2.54-2.88-2.66a2.85,2.85,0,0,0-2.85,2.66A7.21,7.21,0,0,0,251,37.88a10.12,10.12,0,0,0,3.17,3.21c.68.43,1.31-.65.63-1.08Z"/></g><g class="cls-15"><path class="cls-16" d="M36.52,41.55a9.33,9.33,0,0,1-3.86-5,4.34,4.34,0,0,1-.15-2.66,2.16,2.16,0,0,1,2-1.56c1.2.05,1.95,1.28,2.47,2.37a2.54,2.54,0,0,1,4.89-.92c.65,1.56-.35,3.3-1.5,4.54a17,17,0,0,1-4,3.15"/><path class="cls-16" d="M36.84,41A8.38,8.38,0,0,1,33,35.43c-.13-.93.23-2.5,1.47-2.43,1,0,1.56,1.29,1.93,2,.29.6,1.14.26,1.17-.31a2,2,0,0,1,2.13-1.84,2,2,0,0,1,1.69,2.3,6,6,0,0,1-2,3.19A16.42,16.42,0,0,1,36.06,41a.63.63,0,0,0,.63,1.08A18,18,0,0,0,40.1,39.5a8.77,8.77,0,0,0,2.33-3.26,3.48,3.48,0,0,0-.54-3.51,3.25,3.25,0,0,0-3.21-1,3.3,3.3,0,0,0-2.34,3l1.16-.32c-.58-1.18-1.43-2.54-2.88-2.66a2.85,2.85,0,0,0-2.85,2.66A7.21,7.21,0,0,0,33,38.88a10.12,10.12,0,0,0,3.17,3.21c.68.43,1.31-.65.63-1.08Z"/></g><g class="cls-15"><path class="cls-16" d="M90.07,19.91a9.29,9.29,0,0,1-3.86-5,4.34,4.34,0,0,1-.15-2.66,2.15,2.15,0,0,1,2-1.56c1.2,0,1.95,1.29,2.47,2.37a2.54,2.54,0,0,1,4.89-.92c.65,1.56-.36,3.3-1.51,4.54a16.76,16.76,0,0,1-4,3.15"/><path class="cls-16" d="M90.39,19.37a8.31,8.31,0,0,1-3.82-5.58c-.14-.93.23-2.5,1.47-2.43,1,.05,1.56,1.29,1.93,2.05.29.6,1.13.26,1.16-.31a2,2,0,0,1,2.13-1.84,2,2,0,0,1,1.7,2.3,6,6,0,0,1-2,3.19,16.33,16.33,0,0,1-3.39,2.58.63.63,0,0,0,.63,1.08,17.63,17.63,0,0,0,3.41-2.55A8.88,8.88,0,0,0,96,14.6a3.46,3.46,0,0,0-.54-3.5,3.23,3.23,0,0,0-3.22-1,3.29,3.29,0,0,0-2.34,3l1.17-.32c-.58-1.18-1.43-2.54-2.89-2.66a2.85,2.85,0,0,0-2.84,2.67,7.21,7.21,0,0,0,1.27,4.46,10.09,10.09,0,0,0,3.17,3.2c.67.43,1.3-.65.63-1.08Z"/></g><g class="cls-15"><path class="cls-16" d="M131.37,20a9.3,9.3,0,0,1-3.86-4.95,4.34,4.34,0,0,1-.15-2.66,2.15,2.15,0,0,1,2-1.56c1.2,0,1.95,1.28,2.47,2.36a2.54,2.54,0,0,1,4.89-.91c.65,1.55-.35,3.3-1.5,4.53a17,17,0,0,1-4,3.15"/><path class="cls-16" d="M131.69,19.46a8.35,8.35,0,0,1-3.82-5.57c-.13-.94.23-2.51,1.47-2.44,1,.05,1.56,1.29,1.93,2.06.29.59,1.13.25,1.17-.32a2,2,0,0,1,2.12-1.84,2,2,0,0,1,1.7,2.31,6,6,0,0,1-2,3.18,16.07,16.07,0,0,1-3.39,2.58.63.63,0,0,0,.63,1.08A18,18,0,0,0,135,18a8.81,8.81,0,0,0,2.33-3.27,3.47,3.47,0,0,0-.54-3.5,3.21,3.21,0,0,0-3.21-1,3.26,3.26,0,0,0-2.34,3l1.16-.31c-.58-1.19-1.43-2.55-2.88-2.67a2.85,2.85,0,0,0-2.85,2.67,7.21,7.21,0,0,0,1.27,4.46,10.19,10.19,0,0,0,3.17,3.2c.68.44,1.3-.64.63-1.08Z"/></g><g class="cls-15"><path class="cls-16" d="M174.37,21a9.3,9.3,0,0,1-3.86-4.95,4.34,4.34,0,0,1-.15-2.66,2.15,2.15,0,0,1,2-1.56c1.2,0,1.95,1.28,2.47,2.36a2.54,2.54,0,0,1,4.89-.91c.65,1.55-.35,3.3-1.5,4.53a17,17,0,0,1-4,3.15"/><path class="cls-16" d="M174.69,20.46a8.35,8.35,0,0,1-3.82-5.57c-.13-.94.23-2.51,1.47-2.44,1,.05,1.56,1.29,1.93,2.06.29.59,1.13.25,1.17-.32a2,2,0,0,1,2.12-1.84,2,2,0,0,1,1.7,2.31,6,6,0,0,1-2,3.18,16.07,16.07,0,0,1-3.39,2.58.63.63,0,0,0,.63,1.08A18,18,0,0,0,178,19a8.81,8.81,0,0,0,2.33-3.27,3.47,3.47,0,0,0-.54-3.5,3.21,3.21,0,0,0-3.21-1,3.26,3.26,0,0,0-2.34,3l1.16-.31c-.58-1.19-1.43-2.55-2.88-2.67a2.85,2.85,0,0,0-2.85,2.67,7.21,7.21,0,0,0,1.27,4.46,10.19,10.19,0,0,0,3.17,3.2c.68.44,1.3-.64.63-1.08Z"/></g><g class="cls-15"><path class="cls-16" d="M218.22,20.46a9.33,9.33,0,0,1-3.86-5,4.34,4.34,0,0,1-.15-2.66,2.16,2.16,0,0,1,2-1.56c1.2,0,1.95,1.28,2.47,2.37a2.54,2.54,0,0,1,4.89-.92c.65,1.56-.36,3.3-1.5,4.54a17.28,17.28,0,0,1-4,3.15"/><path class="cls-16" d="M218.54,19.92a8.39,8.39,0,0,1-3.82-5.58c-.13-.94.23-2.5,1.47-2.44,1,.06,1.56,1.3,1.93,2.06.29.59,1.13.26,1.16-.31a2,2,0,0,1,2.13-1.84,2,2,0,0,1,1.7,2.3,6,6,0,0,1-2,3.19,17.06,17.06,0,0,1-3.39,2.58.63.63,0,0,0,.63,1.08,18,18,0,0,0,3.41-2.55,8.88,8.88,0,0,0,2.33-3.26,3.48,3.48,0,0,0-.54-3.51,3.24,3.24,0,0,0-3.21-1,3.31,3.31,0,0,0-2.35,3l1.17-.32c-.58-1.19-1.43-2.55-2.89-2.67a2.86,2.86,0,0,0-2.84,2.67,7.21,7.21,0,0,0,1.27,4.46A10,10,0,0,0,217.91,21c.68.43,1.3-.65.63-1.08Z"/></g><g class="cls-15"><path class="cls-16" d="M259.52,20.55a9.33,9.33,0,0,1-3.86-5,4.34,4.34,0,0,1-.15-2.66,2.16,2.16,0,0,1,2-1.56c1.2.05,1.95,1.28,2.47,2.37a2.54,2.54,0,0,1,4.89-.92c.65,1.56-.35,3.3-1.5,4.54a17,17,0,0,1-4,3.15"/><path class="cls-16" d="M259.84,20A8.38,8.38,0,0,1,256,14.43c-.13-.93.23-2.5,1.47-2.43,1,.05,1.56,1.29,1.93,2.05.29.6,1.14.26,1.17-.31a2,2,0,0,1,2.13-1.84,2,2,0,0,1,1.69,2.3,6,6,0,0,1-2,3.19A16.42,16.42,0,0,1,259.06,20a.63.63,0,0,0,.63,1.08,18,18,0,0,0,3.41-2.55,8.77,8.77,0,0,0,2.33-3.26,3.48,3.48,0,0,0-.54-3.51,3.25,3.25,0,0,0-3.21-1,3.3,3.3,0,0,0-2.34,3l1.16-.32c-.58-1.18-1.43-2.54-2.88-2.66a2.85,2.85,0,0,0-2.85,2.66A7.21,7.21,0,0,0,256,17.88a10.12,10.12,0,0,0,3.17,3.21c.68.43,1.31-.65.63-1.08Z"/></g><g class="cls-15"><path class="cls-16" d="M41.52,21.55a9.33,9.33,0,0,1-3.86-5,4.34,4.34,0,0,1-.15-2.66,2.16,2.16,0,0,1,2-1.56c1.2.05,1.95,1.28,2.47,2.37a2.54,2.54,0,0,1,4.89-.92c.65,1.56-.35,3.3-1.5,4.54a17,17,0,0,1-4,3.15"/><path class="cls-16" d="M41.84,21A8.38,8.38,0,0,1,38,15.43c-.13-.93.23-2.5,1.47-2.43,1,.05,1.56,1.29,1.93,2.05.29.6,1.14.26,1.17-.31a2,2,0,0,1,2.13-1.84,2,2,0,0,1,1.69,2.3,6,6,0,0,1-2,3.19A16.42,16.42,0,0,1,41.06,21a.63.63,0,0,0,.63,1.08A18,18,0,0,0,45.1,19.5a8.77,8.77,0,0,0,2.33-3.26,3.48,3.48,0,0,0-.54-3.51,3.25,3.25,0,0,0-3.21-1,3.3,3.3,0,0,0-2.34,3l1.16-.32c-.58-1.18-1.43-2.54-2.88-2.66a2.85,2.85,0,0,0-2.85,2.66A7.21,7.21,0,0,0,38,18.88a10.12,10.12,0,0,0,3.17,3.21c.68.43,1.31-.65.63-1.08Z"/></g><g class="cls-15"><path class="cls-17" d="M114.07,9.91a9.29,9.29,0,0,1-3.86-5,4.34,4.34,0,0,1-.15-2.66,2.15,2.15,0,0,1,2-1.56C113.24.78,114,2,114.51,3.1A2.62,2.62,0,0,1,116.58.66a2.63,2.63,0,0,1,2.82,1.52c.65,1.56-.36,3.3-1.51,4.54a16.76,16.76,0,0,1-4,3.15"/><path class="cls-17" d="M114.39,9.37a8.31,8.31,0,0,1-3.82-5.58c-.14-.93.23-2.5,1.47-2.43,1,0,1.56,1.29,1.93,2.05.29.6,1.13.26,1.16-.31a2,2,0,0,1,2.13-1.84,2,2,0,0,1,1.7,2.3,6,6,0,0,1-2,3.19,16.33,16.33,0,0,1-3.39,2.58.63.63,0,0,0,.63,1.08,17.63,17.63,0,0,0,3.41-2.55A8.88,8.88,0,0,0,120,4.6a3.46,3.46,0,0,0-.54-3.5,3.23,3.23,0,0,0-3.22-1,3.29,3.29,0,0,0-2.34,3l1.17-.32c-.58-1.18-1.43-2.54-2.89-2.66a2.85,2.85,0,0,0-2.84,2.67,7.21,7.21,0,0,0,1.27,4.46,10.09,10.09,0,0,0,3.17,3.2c.67.43,1.3-.65.63-1.08Z"/></g><g class="cls-15"><path class="cls-17" d="M155.37,10a9.3,9.3,0,0,1-3.86-4.95,4.34,4.34,0,0,1-.15-2.66,2.15,2.15,0,0,1,2-1.56c1.2,0,1.95,1.28,2.47,2.36a2.54,2.54,0,0,1,4.89-.91c.65,1.55-.35,3.3-1.5,4.53a17,17,0,0,1-4,3.15"/><path class="cls-17" d="M155.69,9.46a8.35,8.35,0,0,1-3.82-5.57c-.13-.94.23-2.51,1.47-2.44,1,.05,1.56,1.29,1.93,2.06.29.59,1.13.25,1.17-.32a2,2,0,0,1,2.12-1.84,2,2,0,0,1,1.7,2.31,6,6,0,0,1-2,3.18,16.07,16.07,0,0,1-3.39,2.58.63.63,0,0,0,.63,1.08A18,18,0,0,0,159,8a8.81,8.81,0,0,0,2.33-3.27,3.47,3.47,0,0,0-.54-3.5,3.21,3.21,0,0,0-3.21-1,3.26,3.26,0,0,0-2.34,3l1.16-.31c-.58-1.19-1.43-2.55-2.88-2.67a2.85,2.85,0,0,0-2.85,2.67,7.21,7.21,0,0,0,1.27,4.46,10.19,10.19,0,0,0,3.17,3.2c.68.44,1.3-.64.63-1.08Z"/></g><g class="cls-15"><path class="cls-17" d="M198.37,11a9.3,9.3,0,0,1-3.86-4.95,4.34,4.34,0,0,1-.15-2.66,2.15,2.15,0,0,1,2-1.56c1.2,0,1.95,1.28,2.47,2.36a2.54,2.54,0,0,1,4.89-.91c.65,1.55-.35,3.3-1.5,4.53a17,17,0,0,1-4,3.15"/><path class="cls-17" d="M198.69,10.46a8.35,8.35,0,0,1-3.82-5.57c-.13-.94.23-2.51,1.47-2.44,1,0,1.56,1.29,1.93,2.06.29.59,1.13.25,1.17-.32a2,2,0,0,1,2.12-1.84,2,2,0,0,1,1.7,2.31,6,6,0,0,1-2,3.18,16.07,16.07,0,0,1-3.39,2.58.63.63,0,0,0,.63,1.08A18,18,0,0,0,202,9a8.81,8.81,0,0,0,2.33-3.27,3.47,3.47,0,0,0-.54-3.5,3.21,3.21,0,0,0-3.21-1,3.26,3.26,0,0,0-2.34,3l1.16-.31c-.58-1.19-1.43-2.55-2.88-2.67a2.85,2.85,0,0,0-2.85,2.67,7.21,7.21,0,0,0,1.27,4.46,10.19,10.19,0,0,0,3.17,3.2c.68.44,1.3-.64.63-1.08Z"/></g><g class="cls-15"><path class="cls-17" d="M242.22,10.46a9.33,9.33,0,0,1-3.86-5,4.34,4.34,0,0,1-.15-2.66,2.16,2.16,0,0,1,2-1.56c1.2,0,1.95,1.28,2.47,2.37a2.54,2.54,0,0,1,4.89-.92c.65,1.56-.36,3.3-1.5,4.54a17.28,17.28,0,0,1-4,3.15"/><path class="cls-17" d="M242.54,9.92a8.39,8.39,0,0,1-3.82-5.58c-.13-.94.23-2.5,1.47-2.44,1,.06,1.56,1.3,1.93,2.06.29.59,1.13.26,1.16-.31a2,2,0,0,1,2.13-1.84,2,2,0,0,1,1.7,2.3,6,6,0,0,1-2,3.19,17.06,17.06,0,0,1-3.39,2.58.63.63,0,0,0,.63,1.08,18,18,0,0,0,3.41-2.55,8.88,8.88,0,0,0,2.33-3.26,3.48,3.48,0,0,0-.54-3.51,3.24,3.24,0,0,0-3.21-1,3.31,3.31,0,0,0-2.35,3l1.17-.32c-.58-1.19-1.43-2.55-2.89-2.67a2.86,2.86,0,0,0-2.84,2.67,7.21,7.21,0,0,0,1.27,4.46A10,10,0,0,0,241.91,11c.68.43,1.3-.65.63-1.08Z"/></g><g class="cls-15"><path class="cls-17" d="M283.52,10.55a9.33,9.33,0,0,1-3.86-5,4.34,4.34,0,0,1-.15-2.66,2.16,2.16,0,0,1,2-1.56c1.2,0,1.95,1.28,2.47,2.37a2.54,2.54,0,0,1,4.89-.92c.65,1.56-.35,3.3-1.5,4.54a17,17,0,0,1-4,3.15"/><path class="cls-17" d="M283.84,10A8.38,8.38,0,0,1,280,4.43c-.13-.93.23-2.5,1.47-2.43,1,0,1.56,1.29,1.93,2.05.29.6,1.14.26,1.17-.31a2,2,0,0,1,2.13-1.84,2,2,0,0,1,1.69,2.3,6,6,0,0,1-2,3.19A16.42,16.42,0,0,1,283.06,10a.63.63,0,0,0,.63,1.08A18,18,0,0,0,287.1,8.5a8.77,8.77,0,0,0,2.33-3.26,3.48,3.48,0,0,0-.54-3.51,3.25,3.25,0,0,0-3.21-1,3.3,3.3,0,0,0-2.34,3l1.16-.32c-.58-1.18-1.43-2.54-2.88-2.66a2.85,2.85,0,0,0-2.85,2.66A7.21,7.21,0,0,0,280,7.88a10.12,10.12,0,0,0,3.17,3.21c.68.43,1.31-.65.63-1.08Z"/></g><g class="cls-15"><path class="cls-17" d="M65.52,11.55a9.33,9.33,0,0,1-3.86-5,4.34,4.34,0,0,1-.15-2.66,2.16,2.16,0,0,1,2-1.56c1.2,0,1.95,1.28,2.47,2.37a2.54,2.54,0,0,1,4.89-.92c.65,1.56-.35,3.3-1.5,4.54a17,17,0,0,1-4,3.15"/><path class="cls-17" d="M65.84,11A8.38,8.38,0,0,1,62,5.43c-.13-.93.23-2.5,1.47-2.43,1,0,1.56,1.29,1.93,2.05.29.6,1.14.26,1.17-.31A2,2,0,0,1,68.72,2.9a2,2,0,0,1,1.69,2.3,6,6,0,0,1-2,3.19A16.42,16.42,0,0,1,65.06,11a.63.63,0,0,0,.63,1.08A18,18,0,0,0,69.1,9.5a8.77,8.77,0,0,0,2.33-3.26,3.48,3.48,0,0,0-.54-3.51,3.25,3.25,0,0,0-3.21-1,3.3,3.3,0,0,0-2.34,3l1.16-.32c-.58-1.18-1.43-2.54-2.88-2.66a2.85,2.85,0,0,0-2.85,2.66A7.21,7.21,0,0,0,62,8.88a10.12,10.12,0,0,0,3.17,3.21c.68.43,1.31-.65.63-1.08Z"/></g><path class="cls-14" d="M112.07,30a9.27,9.27,0,0,1-3.86-4.95,4.34,4.34,0,0,1-.15-2.66,2.13,2.13,0,0,1,2-1.56c1.2,0,1.95,1.28,2.47,2.36a2.54,2.54,0,0,1,4.89-.91c.65,1.55-.36,3.3-1.51,4.53a16.8,16.8,0,0,1-4,3.16"/><path class="cls-14" d="M112.39,29.48a8.32,8.32,0,0,1-3.82-5.57c-.14-.94.23-2.51,1.47-2.44,1,.06,1.56,1.29,1.93,2.06.29.59,1.13.26,1.16-.32a2,2,0,0,1,2.13-1.83,2,2,0,0,1,1.7,2.3,6,6,0,0,1-2,3.18,16.73,16.73,0,0,1-3.39,2.59.63.63,0,0,0,.63,1.08A18.49,18.49,0,0,0,115.65,28,8.92,8.92,0,0,0,118,24.71a3.47,3.47,0,0,0-.54-3.5,3.23,3.23,0,0,0-3.22-1,3.29,3.29,0,0,0-2.34,3l1.17-.31c-.58-1.19-1.43-2.55-2.89-2.67a2.85,2.85,0,0,0-2.84,2.67,7.21,7.21,0,0,0,1.27,4.46,10,10,0,0,0,3.17,3.2c.67.44,1.3-.64.63-1.08Z"/><path class="cls-14" d="M153.37,30.12a9.33,9.33,0,0,1-3.86-5,4.34,4.34,0,0,1-.15-2.66,2.16,2.16,0,0,1,2-1.56c1.2,0,1.95,1.28,2.47,2.37a2.54,2.54,0,0,1,4.89-.92c.65,1.56-.35,3.3-1.5,4.54a17.28,17.28,0,0,1-4,3.15"/><path class="cls-14" d="M153.69,29.58A8.39,8.39,0,0,1,149.87,24c-.13-.94.23-2.5,1.47-2.44,1,.06,1.56,1.3,1.93,2.06.29.6,1.13.26,1.17-.31a1.94,1.94,0,0,1,2.12-1.84,2,2,0,0,1,1.7,2.3,6,6,0,0,1-2,3.19,16.77,16.77,0,0,1-3.39,2.58.63.63,0,0,0,.63,1.08A18,18,0,0,0,157,28.07a8.77,8.77,0,0,0,2.33-3.26,3.48,3.48,0,0,0-.54-3.51,3.23,3.23,0,0,0-3.21-1,3.29,3.29,0,0,0-2.34,3l1.16-.32c-.58-1.19-1.43-2.55-2.88-2.67A2.86,2.86,0,0,0,148.62,23a7.21,7.21,0,0,0,1.27,4.46,10.12,10.12,0,0,0,3.17,3.21c.68.43,1.3-.65.63-1.08Z"/><path class="cls-14" d="M196.37,31.12a9.33,9.33,0,0,1-3.86-5,4.34,4.34,0,0,1-.15-2.66,2.16,2.16,0,0,1,2-1.56c1.2,0,1.95,1.28,2.47,2.37a2.54,2.54,0,0,1,4.89-.92c.65,1.56-.35,3.3-1.5,4.54a17.28,17.28,0,0,1-4,3.15"/><path class="cls-14" d="M196.69,30.58A8.39,8.39,0,0,1,192.87,25c-.13-.94.23-2.5,1.47-2.44,1,.06,1.56,1.3,1.93,2.06.29.6,1.13.26,1.17-.31a1.94,1.94,0,0,1,2.12-1.84,2,2,0,0,1,1.7,2.3,6,6,0,0,1-2,3.19,16.77,16.77,0,0,1-3.39,2.58.63.63,0,0,0,.63,1.08A18,18,0,0,0,200,29.07a8.77,8.77,0,0,0,2.33-3.26,3.48,3.48,0,0,0-.54-3.51,3.23,3.23,0,0,0-3.21-1,3.29,3.29,0,0,0-2.34,3l1.16-.32c-.58-1.19-1.43-2.55-2.88-2.67A2.86,2.86,0,0,0,191.62,24a7.21,7.21,0,0,0,1.27,4.46,10.12,10.12,0,0,0,3.17,3.21c.68.43,1.3-.65.63-1.08Z"/><path class="cls-14" d="M240.22,30.57a9.29,9.29,0,0,1-3.86-5,4.34,4.34,0,0,1-.15-2.66,2.17,2.17,0,0,1,2-1.56c1.2.05,1.95,1.29,2.47,2.37a2.54,2.54,0,0,1,4.89-.92c.65,1.56-.36,3.3-1.5,4.54a17,17,0,0,1-4,3.15"/><path class="cls-14" d="M240.54,30a8.35,8.35,0,0,1-3.82-5.57c-.13-.94.23-2.51,1.47-2.44,1,.05,1.56,1.29,1.93,2.05.29.6,1.13.26,1.16-.31a2,2,0,0,1,2.13-1.84,2,2,0,0,1,1.7,2.3,6,6,0,0,1-2,3.19A16.33,16.33,0,0,1,239.76,30a.63.63,0,0,0,.63,1.08,17.63,17.63,0,0,0,3.41-2.55,8.88,8.88,0,0,0,2.33-3.26,3.46,3.46,0,0,0-.54-3.5,3.22,3.22,0,0,0-3.21-1,3.29,3.29,0,0,0-2.35,3l1.17-.32c-.58-1.18-1.43-2.54-2.89-2.66a2.85,2.85,0,0,0-2.84,2.67,7.21,7.21,0,0,0,1.27,4.46,10.09,10.09,0,0,0,3.17,3.2c.68.43,1.3-.65.63-1.08Z"/><path class="cls-14" d="M281.52,30.66a9.27,9.27,0,0,1-3.86-4.95,4.34,4.34,0,0,1-.15-2.66,2.15,2.15,0,0,1,2-1.56c1.2,0,1.95,1.28,2.47,2.36a2.54,2.54,0,0,1,4.89-.91c.65,1.55-.35,3.3-1.5,4.53a17,17,0,0,1-4,3.15"/><path class="cls-14" d="M281.84,30.12A8.38,8.38,0,0,1,278,24.55c-.13-.94.23-2.51,1.47-2.44,1,.06,1.56,1.29,1.93,2.06.29.59,1.14.25,1.17-.32A1.94,1.94,0,0,1,284.72,22a2,2,0,0,1,1.69,2.3,6,6,0,0,1-2,3.18,16.07,16.07,0,0,1-3.39,2.58.63.63,0,0,0,.63,1.08,18,18,0,0,0,3.41-2.54,8.81,8.81,0,0,0,2.33-3.27,3.47,3.47,0,0,0-.54-3.5,3.21,3.21,0,0,0-3.21-1,3.28,3.28,0,0,0-2.34,3l1.16-.31c-.58-1.19-1.43-2.55-2.88-2.67a2.86,2.86,0,0,0-2.85,2.67A7.21,7.21,0,0,0,278,28a10.19,10.19,0,0,0,3.17,3.2c.68.44,1.31-.64.63-1.08Z"/><path class="cls-14" d="M63.52,31.66a9.27,9.27,0,0,1-3.86-4.95,4.34,4.34,0,0,1-.15-2.66,2.15,2.15,0,0,1,2-1.56c1.2,0,1.95,1.28,2.47,2.36a2.54,2.54,0,0,1,4.89-.91c.65,1.55-.35,3.3-1.5,4.53a17,17,0,0,1-4,3.15"/><path class="cls-14" d="M63.84,31.12A8.38,8.38,0,0,1,60,25.55c-.13-.94.23-2.51,1.47-2.44,1,.06,1.56,1.29,1.93,2.06.29.59,1.14.25,1.17-.32A1.94,1.94,0,0,1,66.72,23a2,2,0,0,1,1.69,2.3,6,6,0,0,1-2,3.18,16.07,16.07,0,0,1-3.39,2.58.63.63,0,0,0,.63,1.08,18,18,0,0,0,3.41-2.54,8.81,8.81,0,0,0,2.33-3.27,3.47,3.47,0,0,0-.54-3.5,3.21,3.21,0,0,0-3.21-1,3.28,3.28,0,0,0-2.34,3l1.16-.31c-.58-1.19-1.43-2.55-2.88-2.67a2.86,2.86,0,0,0-2.85,2.67A7.21,7.21,0,0,0,60,29a10.19,10.19,0,0,0,3.17,3.2c.68.44,1.31-.64.63-1.08Z"/></g></g></svg>