<svg xmlns="http://www.w3.org/2000/svg" viewBox="0 0 95 95"><defs><style>.cls-1,.cls-7{fill:#fff;}.cls-1,.cls-5{stroke:#f2f2f2;}.cls-1,.cls-4,.cls-5,.cls-9{stroke-miterlimit:10;}.cls-2,.cls-9{fill:#e6e6e6;}.cls-3{fill:#ff7bac;}.cls-4{fill:#f2f2f2;}.cls-4,.cls-9{stroke:#e6e6e6;stroke-width:0.5px;}.cls-5{fill:none;}.cls-6{fill:#53536d;}.cls-8{fill:#2e3192;}</style></defs><g id="Layer_2" data-name="Layer 2"><g id="Layer_1-2" data-name="Layer 1"><circle class="cls-1" cx="47.5" cy="47.5" r="47" transform="translate(-7 86.78) rotate(-80.78)"/><path class="cls-2" d="M53.58,70.35s-3.36-.19-6.86,0c-3.5-.19-6.86,0-6.86,0,.16,2.56-1.37,7.15-1.37,7.15H55S53.42,72.91,53.58,70.35Z"/><path class="cls-3" d="M24.65,31.22c-.16-6.62,1.92-9.47,1.92-9.47s-.6.08-1.42.24a10.08,10.08,0,0,0-1.71-5,2.54,2.54,0,0,0,.37-1.42,2.39,2.39,0,1,0-2.31,2.57,2.38,2.38,0,0,0,.89-.22,8.25,8.25,0,0,1,1.4,4.4,5,5,0,0,0-2.61,1.28c-.4.61-.61,4-.61,7.47h0c0,3.44.21,6.86.61,7.47C22,39.78,26,40.37,26,40.37A27,27,0,0,1,24.65,31.22Z"/><path class="cls-3" d="M72.29,17.91a2.38,2.38,0,0,0,.88.22A2.48,2.48,0,1,0,71.24,17a10.12,10.12,0,0,0-1.72,5c-.81-.16-1.42-.24-1.42-.24S70.18,24.6,70,31.22a27,27,0,0,1-1.39,9.15s4-.59,4.85-1.84c.41-.61.61-4,.62-7.47h0c0-3.44-.21-6.86-.62-7.47a5,5,0,0,0-2.61-1.28A8.29,8.29,0,0,1,72.29,17.91Z"/><path class="cls-4" d="M70.45,42.54C68.75,32,54.05,27.22,46.72,27.22S24.69,32,23,42.54c-1.07,6.58,1.12,17,4.88,20.43,1.64,1.48,10.81,8.25,18.61,8.25H47c7.8,0,17-6.77,18.61-8.25C69.33,59.56,71.52,49.12,70.45,42.54Z"/><path class="cls-5" d="M61.58,51.64a5.46,5.46,0,1,1-5.45-5.45A5.46,5.46,0,0,1,61.58,51.64Z"/><path class="cls-5" d="M56.13,57.79a6.15,6.15,0,1,1,6.14-6.15A6.16,6.16,0,0,1,56.13,57.79Zm0-10.91a4.77,4.77,0,1,0,4.76,4.76A4.77,4.77,0,0,0,56.13,46.88Z"/><path class="cls-6" d="M58.48,51.4A2.47,2.47,0,1,1,56,48.82,2.52,2.52,0,0,1,58.48,51.4Z"/><path class="cls-7" d="M56.7,50.38a1,1,0,1,1-1-1A1,1,0,0,1,56.7,50.38Z"/><path class="cls-5" d="M42.77,51.64a5.46,5.46,0,1,1-5.45-5.45A5.46,5.46,0,0,1,42.77,51.64Z"/><path class="cls-5" d="M37.32,57.79a6.15,6.15,0,1,1,6.14-6.15A6.16,6.16,0,0,1,37.32,57.79Zm0-10.91a4.77,4.77,0,1,0,4.76,4.76A4.77,4.77,0,0,0,37.32,46.88Z"/><path class="cls-6" d="M39.67,51.4a2.47,2.47,0,1,1-2.47-2.58A2.52,2.52,0,0,1,39.67,51.4Z"/><path class="cls-7" d="M37.89,50.38a1,1,0,1,1-1-1A1,1,0,0,1,37.89,50.38Z"/><path class="cls-8" d="M48.86,60.85a5.75,5.75,0,0,1-2.89.61,5.79,5.79,0,0,1-2.9-.61c-.17-.07.6,1.71,2.9,1.72S49,60.78,48.86,60.85Z"/><rect class="cls-3" x="40.61" y="1.5" width="13" height="53" transform="translate(75.11 -19.11) rotate(90)"/><rect class="cls-9" x="42.84" y="59.16" width="8" height="40" transform="translate(126 32.31) rotate(90)"/><rect class="cls-3" x="66.61" y="21.5" width="8" height="62"/><rect class="cls-3" x="30.54" y="32.27" width="8.7" height="12.54" transform="translate(73.44 3.65) rotate(90)"/><rect class="cls-3" x="54.79" y="32.28" width="8.7" height="12.54" transform="translate(97.68 -20.6) rotate(90)"/><rect class="cls-3" x="19.61" y="21.5" width="8" height="62"/></g></g></svg>